<svg xmlns="http://www.w3.org/2000/svg" viewBox="0 0 598.78 447.48"><g id="Layer_2" data-name="Layer 2"><g id="Layer_1-2" data-name="Layer 1"><path d="M302.36,291.81c-7.18-5.95-13.71-12.12-21-17.22-18.08-12.68-36.89-24.35-54.71-37.39C199.07,217,181.32,190,174.2,156.34,162.09,99.08,191.46,39.82,244.64,14.05,265.85,3.77,288.18-1.36,311.69.31c34.57,2.45,64.41,16.08,89.6,39.85,3.27,3.09,6.45,6.27,9.5,9.57,3.27,3.54,3.21,6.82-.5,9.87q-15.78,13-31.86,25.54c-3.95,3.09-7.46,2.22-11-2.33C354.44,66.17,337.37,56,316.7,53c-40.65-6-79.77,17.84-89.95,60.17-9.15,38.11,9.21,76,45.12,91.68,30,13.12,58.1,7.54,83.38-12.62,5-4,9.3-9,13.34-14,2.88-3.57,5.74-4.6,9.9-2.9,9.34,3.83,18.73,7.55,28.09,11.32,1.23.5,2.41,1.11,3.65,1.58,8.84,3.38,8.49,3.76,4.76,12.29-7.78,17.77-21.67,29.61-37.29,39.73-15.32,9.93-31.13,19.1-46.62,28.78C320.39,275.68,309.64,282.34,302.36,291.81Z"/><path d="M468.09,293.63c-.47,16.81-2.09,17.25-18.95,15.44-12.85-1.38-25.66-4.17-38.5-4.28-34.86-.3-68.87,4.33-99.7,22.44a11.86,11.86,0,0,1-12.68.16C273.64,313.56,246.69,309,219,307.14a291.75,291.75,0,0,0-73.88,4.11,26.12,26.12,0,0,1-7.44,0c-5-.54-7.69-3.48-8.06-8.51-.21-2.79-.38-5.58-.61-8.89,8.78-1.31,17.25-2.63,25.74-3.82,16.6-2.32,33.21-4.43,50.06-3,32.75,2.75,63.73,12,93.53,25.46,4.86,2.19,8.62,2,13.5-.24,26.3-12,53.45-21.36,82.19-25.73,18.81-2.87,36.95,1.39,55.23,4.49C455.39,292.07,461.62,292.74,468.09,293.63Z"/><path d="M129.89,285.31c4.05-18,7.74-34.5,11.45-51,1.13-5,2.16-10.06,3.58-15A11.47,11.47,0,0,1,148.1,214c6.81-5.8,21.7-4.49,26.5,2.95,12.11,18.79,29.34,31.1,48.66,41.52,15.3,8.25,29.82,18,44.52,27.27,3.3,2.09,6,5.2,8.71,8.58C229,274.92,180.47,272.26,129.89,285.31Z"/><path d="M323.92,298.6c9.45-15.05,24.38-22.48,39.23-30,10.5-5.32,21.47-9.84,31.47-16A83.87,83.87,0,0,0,424,222c5.37-9.54,16-11.6,23.94-8.84,2.75,1,6.27,3.73,6.85,6.27,4.7,20.31,8.78,40.76,13.17,61.79-9.75-.66-19-.36-27.8-2.06-31.53-6-61.66-1-91.22,10C340.61,292.22,332.33,295.41,323.92,298.6Z"/><path d="M344.09,374.39c11.56,0,22.89-.81,34.05.24,10.59,1,16.8,7.33,18.15,16.29,1.51,9.9-.66,18.53-9.94,24.1-.56.34-1.08.74-1.86,1.28,5.13,9.79,10.23,19.51,15.68,29.93-5.53,0-10.15.2-14.73-.13-1.24-.09-2.79-1.53-3.47-2.75a174.2,174.2,0,0,1-8.88-17.23c-2.06-4.95-5.1-6.81-10.23-5.91a32.36,32.36,0,0,1-5,0V446H344.09ZM358,408.74c5.87-.66,11.49-.76,16.83-2,4.91-1.16,6.94-5.15,6.86-10.26s-2.28-8.66-7.09-9.49c-5.41-.92-11-.77-16.6-1.1Z"/><path d="M269,373.73h14.57v16.51c0,10.15-.06,20.3,0,30.46.1,9.53,4.62,14.12,13.6,14.1,9.19,0,13.47-4.4,13.51-14,.05-14,0-28,0-41.95v-5.09h14.06a9.5,9.5,0,0,1,.5,2.18c0,15.31.25,30.63,0,45.94-.27,15.71-10.6,25.29-26.41,25.57-10.53.19-20.08-1.71-25.86-11.45a26.51,26.51,0,0,1-3.85-12.15C268.72,407.27,269,390.66,269,373.73Z"/><path d="M75,373.75H89.11c0,6,0,11.75,0,17.52,0,9.82-.17,19.65.09,29.46s5.46,14.48,15.3,14c6.36-.29,10.81-3.93,11.5-10.25.66-6.09.76-12.25.83-18.38.13-10.64,0-21.28,0-32.26H130.6c0,17.6.8,35.23-.27,52.74-.74,12.13-12,20.84-24.25,20.64-5.87-.09-12.06-.54-17.5-2.51-8.57-3.1-13.16-10.51-13.44-19.36C74.59,408.3,75,391.18,75,373.75Z"/><path d="M435.85,374a4.69,4.69,0,0,1,.76-.29c13.68-.87,13.75-.89,18.56,11.8,7.1,18.74,14.1,37.52,21.13,56.29.46,1.23.78,2.5,1.28,4.14H462l-5.89-16.58c-7.6,0-15.24-.14-22.87.14-1.24,0-3,1.72-3.5,3-1.77,4.43-3.08,9-4.58,13.62H409.54Zm8,18.88-1.15-.07-8.18,24.32h17.5C449.24,408.67,446.57,400.75,443.9,392.83Z"/><path d="M598.78,373.8v12.12H566.13V402.4h28.73v11.94H566.32v19.28h31.75v12.25H551.86V373.8Z"/><path d="M59.83,398.17H45.35c-3.93-11.13-10-15-19-12.41-5.48,1.6-9.54,5.46-10,10.67a118.15,118.15,0,0,0,.14,27.11c1.13,8.21,7.31,11.77,15.64,11.37,7.78-.38,10.86-3.5,12.94-13.31H59.27c1.14,12.69-9.17,24.62-22.46,25.61-4.92.37-10.11.44-14.84-.72-10.89-2.68-18.69-10-20.47-20.86-1.64-10-2.29-20.83-.09-30.55,5.66-25.06,32.39-27,46.82-18.58C56.22,381.15,59.63,388.65,59.83,398.17Z"/><path d="M215.64,386.16H194.13V373.8h58.63V386h-21v60H215.64Z"/><path d="M498.55,386.14H476.77V373.81h58.42V386H514.45V446h-15.9Z"/><path d="M150.26,373.65h13.83v60h30.26v12.3H150.26Z"/></g></g></svg>