<svg xmlns="http://www.w3.org/2000/svg" viewBox="0 0 339.12 329.15"><g id="Layer_2" data-name="Layer 2"><g id="Layer_1-2" data-name="Layer 1"><path d="M173.39,291.81c-7.19-5.95-13.71-12.12-21-17.22-18.08-12.68-36.9-24.35-54.71-37.39C70.1,217,52.35,190,45.23,156.34,33.12,99.08,62.49,39.82,115.66,14.05,136.87,3.77,159.21-1.36,182.72.31c34.57,2.45,64.41,16.08,89.6,39.85,3.27,3.09,6.45,6.27,9.5,9.57,3.26,3.54,3.21,6.82-.51,9.87q-15.78,13-31.86,25.54c-3.95,3.09-7.45,2.22-11-2.33-13-16.64-30-26.77-50.72-29.81C147.08,47,108,70.84,97.78,113.17c-9.16,38.11,9.2,76,45.12,91.68,30,13.12,58.1,7.54,83.38-12.62,5-4,9.29-9,13.34-14,2.88-3.57,5.74-4.6,9.9-2.9,9.34,3.83,18.72,7.55,28.08,11.32,1.23.5,2.42,1.11,3.66,1.58,8.84,3.38,8.49,3.76,4.76,12.29-7.78,17.77-21.67,29.61-37.29,39.73-15.33,9.93-31.14,19.1-46.62,28.78C191.42,275.68,180.67,282.34,173.39,291.81Z"/><path d="M339.12,293.63c-.47,16.81-2.09,17.25-19,15.44-12.84-1.38-25.65-4.17-38.49-4.28-34.87-.3-68.88,4.33-99.71,22.44a11.86,11.86,0,0,1-12.68.16C144.66,313.56,117.72,309,90,307.14a291.72,291.72,0,0,0-73.88,4.11,26.19,26.19,0,0,1-7.45,0c-5-.54-7.69-3.48-8-8.51C.4,300,.22,297.18,0,293.87c8.78-1.31,17.25-2.63,25.73-3.82,16.61-2.32,33.22-4.43,50.07-3,32.75,2.75,63.72,12,93.53,25.46,4.85,2.19,8.62,2,13.49-.24,26.3-12,53.46-21.36,82.19-25.73,18.82-2.87,36.95,1.39,55.24,4.49C326.42,292.07,332.65,292.74,339.12,293.63Z"/><path d="M.91,285.31c4.06-18,7.75-34.5,11.46-51,1.13-5,2.16-10.06,3.58-15A11.39,11.39,0,0,1,19.13,214c6.81-5.8,21.7-4.49,26.49,2.95C57.74,235.77,75,248.08,94.29,258.5c15.29,8.25,29.81,18,44.52,27.27,3.3,2.09,5.95,5.2,8.71,8.58C100,274.92,51.5,272.26.91,285.31Z"/><path d="M195,298.6c9.45-15.05,24.38-22.48,39.22-30,10.5-5.32,21.48-9.84,31.47-16A83.9,83.9,0,0,0,295,222c5.37-9.54,16-11.6,23.94-8.84,2.75,1,6.26,3.73,6.85,6.27,4.7,20.31,8.78,40.76,13.17,61.79-9.75-.66-19-.36-27.81-2.06-31.52-6-61.65-1-91.21,10C211.64,292.22,203.36,295.41,195,298.6Z"/></g></g></svg>