<svg xmlns="http://www.w3.org/2000/svg" viewBox="0 0 537.83 829.81"><defs><style>.cls-1{fill:#443059;}.cls-2{fill:#412e54;}.cls-3{fill:#332441;}.cls-4{fill:#332440;}.cls-5{fill:#784a09;}.cls-6{fill:#291d31;}.cls-7{fill:#31233d;}.cls-8{fill:#c5632d;}.cls-9{fill:#342442;}.cls-10{fill:#46325c;}.cls-11{fill:#111714;}.cls-12{fill:#261c2c;}.cls-13{fill:#734709;}.cls-14{fill:#908f8d;}.cls-15{fill:#1c2625;}.cls-16{fill:#171f1c;}.cls-17{fill:#88380e;}.cls-18{fill:#80350e;}.cls-19{fill:#2e2038;}.cls-20{fill:#243736;}.cls-21{fill:#c1801c;}.cls-22{fill:#c17e18;}.cls-23{fill:#1a2625;}.cls-24{fill:#251b2c;}.cls-25{fill:#b85522;}.cls-26{fill:#c05f28;}.cls-27{fill:#412d52;}.cls-28{fill:#76480a;}.cls-29{fill:#d4d4d6;}.cls-30{fill:#c5851d;}.cls-31{fill:#241b29;}.cls-32{fill:#1c2523;}.cls-33{fill:#c8c8ca;}.cls-34{fill:#aba7a2;}.cls-35{fill:#55300a;}.cls-36{fill:#e2aa38;}.cls-37{fill:#80340d;}.cls-38{fill:#857c6e;}.cls-39{fill:#a3491a;}.cls-40{fill:#804d0d;}.cls-41{fill:#71480f;}.cls-42{fill:#f2ca61;}.cls-43{fill:#be5d26;}.cls-44{fill:#131c1a;}.cls-45{fill:#3d2b4e;}.cls-46{fill:#32233e;}.cls-47{fill:#b26f0e;}.cls-48{fill:#a14818;}.cls-49{fill:#855a1c;}.cls-50{fill:#754409;}.cls-51{fill:#f6d26a;}.cls-52{fill:#281d2f;}.cls-53{fill:#955c0c;}.cls-54{fill:#896f4a;}.cls-55{fill:#81390e;}.cls-56{fill:#804e0c;}.cls-57{fill:#cdb78f;}.cls-58{fill:#bc5a24;}.cls-59{fill:#b9b8b7;}.cls-60{fill:#151c1a;}.cls-61{fill:#82360e;}.cls-62{fill:#643806;}.cls-63{fill:#47270c;}.cls-64{fill:#ad6f1b;}.cls-65{fill:#b27318;}.cls-66{fill:#814f0f;}.cls-67{fill:#dd8046;}.cls-68{fill:#77310d;}.cls-69{fill:#883911;}.cls-70{fill:#4e2009;}.cls-71{fill:#e3af4e;}.cls-72{fill:#472206;}.cls-73{fill:#80340e;}.cls-74{fill:#dfb550;}.cls-75{fill:#8baac1;}.cls-76{fill:#7ebdee;}.cls-77{fill:#a5c4e1;}.cls-78{fill:#4b91d3;}.cls-79{fill:#7ab8e8;}.cls-80{fill:#5e90c8;}.cls-81{fill:#493560;}.cls-82{fill:#342542;}.cls-83{fill:#261c2d;}.cls-84{fill:#342541;}.cls-85{fill:#c6851b;}.cls-86{fill:#c98823;}.cls-87{fill:#945c0a;}.cls-88{fill:#ac4e1e;}.cls-89{fill:#1f2928;}.cls-90{fill:#232d2c;}.cls-91{fill:#391c0b;}.cls-92{fill:#7d3812;}.cls-93{fill:#c5861f;}.cls-94{fill:#d9982d;}.cls-95{fill:#aa6919;}.cls-96{fill:#c28018;}.cls-97{fill:#925a0b;}.cls-98{fill:#c88921;}.cls-99{fill:#955d0d;}.cls-100{fill:#9b610e;}.cls-101{fill:#9c610d;}.cls-102{fill:#975e0d;}.cls-103{fill:#c05f2b;}.cls-104{fill:#a46208;}.cls-105{fill:#a14919;}.cls-106{fill:#6d2807;}.cls-107{fill:#c6642e;}.cls-108{fill:#411a07;}.cls-109{fill:#b4894f;}.cls-110{fill:#dbac51;}.cls-111{fill:#243838;}.cls-112{fill:#955d0e;}.cls-113{fill:#73470e;}.cls-114{fill:#ad967a;}.cls-115{fill:#b7771b;}.cls-116{fill:#2e1c1b;}.cls-117{fill:#ac6c19;}.cls-118{fill:#dfa534;}.cls-119{fill:#c7821b;}.cls-120{fill:#dda130;}.cls-121{fill:#b2701c;}.cls-122{fill:#9b5b04;}.cls-123{fill:#72430a;}.cls-124{fill:#d8d6d7;}.cls-125{fill:#774c30;}.cls-126{fill:#7d4f2a;}.cls-127{fill:#79320d;}.cls-128{fill:#6a3903;}</style></defs><g id="Layer_2" data-name="Layer 2"><g id="Layer_1-2" data-name="Layer 1"><path class="cls-1" d="M0,602.25v-45c7.16-22.9,19-43.79,28.41-65.71a23.79,23.79,0,0,1,1.88-3.52c1.71-2.6,3.68-2.91,5.45-.23,6.23,9.44,13.7,17.91,21.74,27.58-6.15-13.18-7.28-26.51-10.79-39.23A31.54,31.54,0,0,1,46,463.83c3.87-31.87,17.87-60,32.6-87.81a7.05,7.05,0,0,1,5.55-3.7c7.87-1.35,15.87-1.17,23.78-2a19,19,0,0,1,14.8,4.72,10.76,10.76,0,0,0,5.23,2.74c9.85,5.33,18.07,12.28,22.31,23,1.57,4,3.75,7.78,4.21,12.16-.39,1.74.35,3.25.93,4.8a276,276,0,0,1,11.54,39.56,56.32,56.32,0,0,1,1.29,13.32c-.19,3.62.36,7.32-1.26,10.77-2.48,9.76-9.75,16.45-15.58,24-2.76,3.58-4.58,3.13-6.49-.9a11,11,0,0,1-1.31-3.76c-.69-10.41-5.2-19.88-7.23-30a9.65,9.65,0,0,1-.5-2.93c1.26,10.92-.21,22.27-.95,33.61s-3.61,22.63-6.1,33.84c-1.3,5.87-5.35,10.28-7.83,15.5-2.73,5.22-6.38,9.87-9.36,14.93-1.91,2.41-3.61,5-5.65,7.29-1.79,2-3.82,3.72-6.69,1.62-7.45-9.54-14.77-19.19-23.54-27.77,2.75,8.83,4.55,17.9,7.68,26.53,3.46,9.52,7.23,18.94,11.39,28.19,2.55,5.65,2.93,11.9,5,17.69.61,2.18,1.59,4.32.73,6.66a2.75,2.75,0,0,1-2.37,1.63c-5.08-3.38-8.19-8.6-11.93-13.16A103.61,103.61,0,0,0,61.57,592.9c-8.37-4.66-16.92-9-25.61-13a6.17,6.17,0,0,0-7.31,1C20.93,587.57,11.77,592.51,5,600.38,3.81,601.73,2.44,603.74,0,602.25Z"/><path class="cls-2" d="M0,610.24v-5A4,4,0,0,1,5,603a30.28,30.28,0,0,0,7.41.94c3.69.47,7.38,1,11.09,1.42A11.72,11.72,0,0,0,29.84,607c10.34,2.21,19.64,7,29,11.77,8.13,4.18,15.94,8.93,24,13.16,3.09,1.61,6.14,3.47,5.42,8-.48,3,.37,7.07-5,4.23-1.2-.62-2.36.25-2.32,1.72,0,1.75-.42,3.62.85,5.47,1.84-2,1.91-6.38,5.55-5.27,2.89.89,1.6,4.32,1.92,6.66.34,2.5,1.36,4.78,2,7.18,1,3.43.24,5.31-4,3.84.45,2.06,1.37,4,2.86,4,4.69.11,5.11,3.62,5.85,6.74,1.1,4.68,2.86,9.2,3.6,14,.11.65.19,1.14.08.49,0-.07.12-.17.18-.29.21-1.58-.37-3.7,2.43-3.3a2.41,2.41,0,0,1,.63,1.34C102.18,701,110,713,113.36,726.2c.16.64.42,1.25.58,1.9a30.05,30.05,0,0,0,2.11,7.12c.79,2,1.45,4.1,0,6.14-2,1.38-4.15.88-6.23.42-8.81-1.93-17.43-.88-26,1.54S66.56,747.88,58.18,751a9.11,9.11,0,0,1-3.85.8c-3.33-.44-5.12-2.53-6.53-5.45-7-14.55-12.26-29.81-18.53-44.62-10.17-24-13.48-49.26-17.3-74.53-1-6.89-2.22-13.26-10.34-15.18C.84,611.88.47,610.92,0,610.24Z"/><path class="cls-3" d="M127.86,378.52c-2.64,1.76-4-.92-5.25-2-5.15-4.7-11.29-5.84-17.63-4.79-6.74,1.13-13.58.25-20.26,1.76-2.17.49-3.75.88-5.07,3.17-9.34,16.34-16.5,33.69-23.71,51-5.18,12.46-6.83,25.86-8.94,39.08-1.06,6.59,2.93,12.44,3.42,18.8.87,11.17,6,21.21,8.53,33.41-5.4-6.22-10.44-11.06-14.26-16.72-3.24-4.78-7.78-8.54-10.13-14.05-1.44-3.36-2.79-.4-3.46,1-5.76,12.34-11.88,24.5-17,37.12-2,4.76-4.31,9.35-6.58,14-2,4-4,8-4.87,12.48-.32,1.66-.53,3.74-2.62,4.54V512.36C5.94,501,10.07,488.86,14.89,477c10-24.67,17.39-50.42,29.19-74.38a155.7,155.7,0,0,1,14.81-24.3c4.49-6,11.52-9.67,17.77-13.86,21.47-14.41,43.29-28.32,64.49-43.11,8.33-5.82,13.44-15,18.57-23.72a7.82,7.82,0,0,1,.89-1c4.25,2.14,6.24,6.62,9.79,9.51a79.47,79.47,0,0,1,6,5.9c.84,1.11,2.1,2.06,1.42,3.74-2.61,1.14-8.18,9.39-7.66,11.82.62,2.94,3.58,4.22,5.21,6.48,1.23,1.7,3.33,3.69-1,4.17-4.07-1.81-6.32-5.78-9.8-8.33-1.54-1.12-2.68-1.79-4.37-.56-20,14.52-42.94,24-64.17,36.45-2.42,1.42-4.73,3-7.61,4.91,8.25-1.5,16-1.57,23.74-1.44,2.33,0,4.68-.09,6.77,1.26C122.08,373,125.85,374.79,127.86,378.52Z"/><path class="cls-4" d="M0,610.24a54.39,54.39,0,0,0,5.13,1.87c4.24,1.11,6.17,3.95,6.91,8.09,3.31,18.51,5.2,37.27,9.82,55.56,2.28,9,5.62,17.55,9.07,26.14,4.18,10.43,7.37,21.24,12.18,31.44,2.18,4.63,5.24,8.87,6.45,13.94.56,2.37,2.93,2.44,4.35,3.7a4.51,4.51,0,0,1-2.15,2c-7.57,2.84-15.08,5.85-22.76,8.44-3.21-.54-4.52-2.71-5.52-5.64C15.83,733.37,7.73,711.09.75,688.42A4.26,4.26,0,0,0,0,687.14Z"/><path class="cls-5" d="M22.15,821.29c-6.35,1.86-6.63,1.61-8.41-3.81C10,806.07,6.11,794.71,2.22,783.35c-.35-1,0-3-2.22-2.32v-7c8.23-5.27,16.39-10.66,26.35-12.19,1.92,1.28,2.73,3.31,3.43,5.35C33.93,779.29,38,791.42,42,803.54c.69,2.05,1.42,4.1.81,6.32-1.5,3-4.72,3.47-7.34,4.64C30.21,816.84,25,819.44,19,820.42,20.28,820.45,21.5,819.89,22.15,821.29Z"/><path class="cls-6" d="M26.08,762.24C18.68,764.7,11.89,768.47,5,772c-1.6.83-3.05,2-5,2v-86.9a5.9,5.9,0,0,1,3,3.71c3.57,11.5,6.82,23.13,11,34.4,4,10.73,8.21,21.36,11.2,32.41.61,2.27,3.12,1.34,3.72,3.09C28.47,762.17,27.39,762.43,26.08,762.24Z"/><path class="cls-7" d="M12,605.22a16.47,16.47,0,0,1-6.67-.9c-1.91-.58-3.78-.64-5.35.92v-3a3.78,3.78,0,0,0,3-1.53c7.13-8.67,17.11-14,25.35-21.3,2-1.77,4.13-2.57,6.78-1.24,8.63,4.32,17.3,8.55,25.94,12.86.39.19.58.78.86,1.18,2.71,2.89-.45,3.89-1.85,3.8-7.75-.52-14.56,3.25-21.55,5.22C29.7,603.72,21.14,605.66,12,605.22Z"/><path class="cls-8" d="M374.48,216.75a8.78,8.78,0,0,1-2.85,4.47c-1.74,2.54-.22,5.47-1,8.13a187,187,0,0,1,7.27,23.37,15.66,15.66,0,0,1,2.75,6.94c2,3.16,3,6.42,1,10a6.13,6.13,0,0,1-5.23.78A89.18,89.18,0,0,0,354.82,268c-3,0-5.63-.62-6.6-4.06.44,4.22,2.89,7.08,6,9.61,2.42,1.95,5.48,3.22,6.9,6.27-1.32,2.1.79,3.77.72,5.71.28,1.91,2.81,3.91-.21,5.71-5.87-1.29-11.37-4.12-17.76-3.3-4.31.55-8.66,1.19-12.07,1-1.61.36-.46,1.08-.89.58q-.24-.27.33-.36c9-1.5,20.2,3.07,24.28,9.93a8.37,8.37,0,0,1-.67,7.46,99.56,99.56,0,0,0-16.29-.21,11.66,11.66,0,0,0-5.56,2c5.16,3.13,10.89,5.64,11.06,12.72-.37,3.54,1.18,7.24-1,10.59-.52,1.77-.31,4.13-3.2,4-1.67.74-3.25,1.65-4.9,2.43-7.76,3.7-17.26.51-21.61-7.27.18-.62.73-1.25.41-1.89-6.51-12.84-7.31-27-9.39-40.85-1.59-10.57-1.44-21.22-.87-31.8.39-7.32-2.46-12.79-6.74-18.07C291,231.14,284.5,224.69,279.51,217c-1-1.56-2-3.06-2.11-5-1.4-10.21,3-17.28,11.9-21.92,1.47-.76,2.77-1.91,4.29-2.51,6.57-2.6,10.74-6.89,10.69-14.38.73-1.75.88-3.85,2.87-4.87,21.14,2,42.42,2.94,63.24,7.65,2.37.53,5,.77,6.48,3.23-1.14,7.83-2.27,15.65-2,23.61.12,3.14-1.05,5.56-4.79,5.55-3-.18-5.14-2.19-7.41-3.8-5.68-4-11.49-7.91-17-12.21-4.35-3.42-8.85-4-14-2.19-4.16,1.44-7.92,3.7-12.18,5,11.65-.82,20.83,4.09,29.16,11.24-.93,3.05-2.92,4.11-6.1,3.71a126.39,126.39,0,0,1-15.11-2.66c4.57,7.13,12.15,10.88,17,17.24,1.47,2.25,3.43,1.39,5.25.74,5.08-1.83,10.17-3.64,13.87-7.92a8.46,8.46,0,0,1,2.36-1.73c.27-.18.58-.31.83-.51C371.32,211.68,371.32,211.68,374.48,216.75Z"/><path class="cls-9" d="M253.71,829.8h-97.1c-3.22-1.92-3.69-5.49-4.69-8.53-2.48-7.46-6.63-13.18-14-16.56-2.6-1.2-5.46-2.61-6.69-5.68-.54-2.32.69-3.76,2.4-5a12.21,12.21,0,0,0,4.63-8,167.53,167.53,0,0,1,6.5-24.53c1-3,3.17-5.43,4.71-8.17s3.33-1,4.64.73c3.61,4.61,6.15,9.88,9,15a129.22,129.22,0,0,0,9.17,13.82c-2.06-10.76-2.07-21.6-1.67-32.46.22-6.09,1.18-6.68,7.26-5.54,10.45,1.94,20.87,4,31.3,6.07C220.11,753,230.9,755.7,242,757c4.15.49,5.05,2.29,3.81,6.34-2.43,7.95-5.57,15.67-8.46,23.46-2.5,6.75-4.73,13.49-5.59,20.76,5.35-10.15,13.79-18.14,19-28.37,2.49-4.89,5.12-9.71,7.69-14.56a15.16,15.16,0,0,1,3.46-4.84c1.21-1,2.51-1.72,4.1-.87a3.67,3.67,0,0,1,2,3.7c-.82,21.89-3.8,43.37-12.17,63.82A8.55,8.55,0,0,1,253.71,829.8Z"/><path class="cls-10" d="M306.6,400.64l2.13,1.8c4.23,7.15,3.92,15.67,7.16,23.67.21-3.67-1.5-6.58-1.29-9.72.08-1.11.06-2.58,1.57-2.7,1.17-.1,1.48,1.16,1.72,2.08,1.84,7.06,3.87,14.1,3.08,21.52-.16,1.57.09,3.73-2,4-1.84.26-2.83-1.44-3.57-3a35.81,35.81,0,0,1-1.63-5c2.71,8.18,4.8,16.5,6.72,24.91,5.92,25.86,6.24,52.09,5.39,78.35-.38,11.93-2.23,23.8-3.21,35.72-.33,4.05.43,8,.41,11.93,0,7.66-.2,15.27-3.08,22.55-1.31,3.29-.41,6.66.45,9.81,2.49,9.14,2.68,18.76,5.88,27.76a7.63,7.63,0,0,1,.14,4.91c-1.33,2.86-4.06,3.79-6.73,4.49-5.73,1.48-11.64,1.92-17.53,2.45a3.61,3.61,0,0,1-2.72-.93,4.94,4.94,0,0,1-1-3.76c1.08-11.79-2-22.74-7-33.18-2.22-4.57-2.54-9.22-2.1-14.07.81-8.93,2.38-17.78,3.2-26.71.68-7.43,1.25-14.88,1.59-22.34,2.07-45.39-5.61-89.62-15.6-133.62-1.87-8.26-5-16.15-6.34-24.52,1.59-2.92,3.27-1.67,4.42.19,2.81,4.55,6.7,5.12,11.61,4.34C294.3,400.61,300.49,401.14,306.6,400.64Z"/><path class="cls-11" d="M213.65,76.9a22.83,22.83,0,0,1-.14,4.69c-.72,3,1.29,1.3,2.24,1.43,2.43,1.66.83,3-.62,3.65-8.31,3.86-12.72,11.44-17.45,18.54-2.92,4.39-6.92,8.09-8.84,13.15-1.74,4.59-.9,7.07,2.91,9.26,1.75,1,3.5.71,5.3.38a15.5,15.5,0,0,1,6.91-.07c1.11.31,3,.64,1.26,2.56-4.52,1.84-9.43,1.57-14.08,2.65-5.6.29-11.08,1.45-16.61,2.22-1.85.25-4.11.46-4.23,3.21,0,2.2,1.41,4.5-.44,6.58C157.35,154.63,149,167.44,141.37,181c-.13-11.1.6-22,3.4-33.15a108,108,0,0,0-24.18,41.47c-2.5-3.41.81-6.05,0-9.67C115,191.45,110,202.73,110.19,216.4a49.88,49.88,0,0,1-8.38-14.52c2.91-4.08,3.31-9,4.22-13.66,4.62-23.55,14.46-45,25.77-65.75-10,3.79-16.77,11.78-24.43,18.63-1.18,1.05-1.35,2.67-2.19,3.84-1.7,2.35-2.3,6.08-6.45,5.7-.52-2.44,2.94-3,2.57-5.92-5,3.58-9.63,7-13,12C85.18,161.39,81.86,166,78,171.52c-.11-19.3,5.27-35.85,15-52.28-19.39,6.73-36.8,15.15-51.79,28.53,2.63-8.09,4.9-16.18,9.65-23.26,1.86,1.85.73,3.73-.08,5.49-1.38,3-3.1,5.87-4.26,9.08C54.76,118.54,71.2,107.14,90.72,99a114.65,114.65,0,0,1,48.73-8.58c8.9.29,17.81.55,26.81-1.1,6.71-1.23,13.22,2.62,19.68,4.79,1.82.62,3.53,2.09,5.65,1,4.22-3.28,8.38-6.64,12.62-9.89,3.16-2.3,7.44-3.46,8.2-8.18A1,1,0,0,1,213.65,76.9Z"/><path class="cls-12" d="M253.71,829.8c2.18-6.94,4.52-13.83,6.48-20.82,2.95-10.5,4.35-21.28,5.62-32.1.57-4.84-.48-9.78,1.15-14.5.5-1.46-.5-2.2-1.49-2.78-1.35-.8-2.16.33-2.94,1.14-3.41,3.56-5,8.25-7.13,12.48a136.67,136.67,0,0,1-18.16,27.65c-2.75,3.22-3,8.08-7.47,10.86a93.82,93.82,0,0,1,5.44-23.56c3.33-8.61,6.34-17.35,9.62-26,1.25-3.27-.81-3.73-3.07-4.08-4.23-.65-8.53-1-12.72-1.84-12.39-2.54-24.83-4.86-37.15-7.78-5.56-1.31-11.42-1.35-17-3.12-3.51-1.12-3,1.88-3,4,0,10.9-.5,21.83,1.9,32.6.29,1.26,0,2.64,0,4.86-6.56-7.38-10.74-15.37-15.19-23.2-1.87-3.31-3.9-6.53-5.89-9.77-1-1.67-1.86-1.54-2.75.24a112.2,112.2,0,0,0-10.45,33.2c-.51,3.23-1.93,6.56-5.32,7.94-2,.81-1.7,2.45-2.34,3.78-3.34.75-4.89-1.83-6.71-3.74-1.44-1.51-2.59-3.3-3.89-4.94-.79-1.48-2.18-2.78-1.49-4.73,1.73-2.14,4.23-2.63,6.71-2.74,3.76-.17,4.51-1.69,3.17-5.1-4.18-10.66-8.28-21.36-12.39-32-.59-1.53-1.61-2.93-1.35-4.71.68-4.73-4-8.22-3-13,2-1.78,4.39-1.22,6.65-.81,13.23,2.41,26.58,4.08,39.92,5.63,12,1.41,24.08,2.75,36.19,2.64,10.14-.08,20.17,1.34,30.32,1.34,12.95,0,25.82-.45,38.63-2.45a8.27,8.27,0,0,1,1.85-.34c6.13.41,4.34,5.11,4.68,8.66-.26,26.21.36,52.42.13,78.63,0,3,.88,6.48-2.58,8.52Z"/><path class="cls-13" d="M269.83,742.21c-1-2.6,2.24-7.64-4.14-7.11-.3-1.57,1.12-1.84,2-2.51a4,4,0,0,0,1-5.36c-1.09-2-3-.69-4.49-.34-4.53,1-8.92,2.59-13.39,3.85-10,2.79-20.23,2.87-28.64,3.67A205.57,205.57,0,0,0,259,733.13c2.53-.34,5-.42,6.76,2-6.7,1.92-13.64,2.49-20.5,2.8-23,1-45.86-.5-68.74-2a533,533,0,0,1-58.6-7.61,43.38,43.38,0,0,0-5-.34c-4.36-14-12.35-27.13-11.16-42.63-1.48-1.47-1.12-3.4-1.31-5.19,0-6.19-.19-12.41,2.6-18.2a4.48,4.48,0,0,1,3.85.2,95.62,95.62,0,0,0,17.85,4.64,4.79,4.79,0,0,1,3.11,1.38c.53,1.86,2.26.83,3.36,1.35,1.39.65,2.83,1.14,2.89,3,.13,3.84,2.77,7.21,1,11.56-1.36,3.31,2,7.51,6.32,9.67,9,4.47,18,8.46,28.56,7.08,2.41-.32,6.75-.91,6.8,2.07.06,3.85-4.32,2.41-6.84,2.52-6,.26-12,.2-18,.07-7.34-.16-10.79,5.07-14.42,10-1.36,1.86-.08,3.48,1.43,4.7a18.53,18.53,0,0,0,6.74,3.16c12.83,3.68,25.91,7,39.18,7,13.72-.06,27.66.36,41.23-2.28,7.73-1.5,14.9-5.38,22.73-7,5-1.05,10-2.51,15-3.71,8.07-1.94,8.3-2.32,7-10.93a11.76,11.76,0,0,1-.4-2.36,34.4,34.4,0,0,0-.8-7.77,10.33,10.33,0,0,1-.21-3.45c.85-5-1.73-8.48-5.15-11.58-.36-3,.31-5.51,3.63-6.49,4.2,1.06,6.06,4.46,7.58,8,4.31,9.92,5.19,20.49,5.61,31.12-.08,4.13.13,8.27-.67,12.37-.51,2.61,0,3.78,3.31,3.48,9.83-.88,16.43-7.3,23.41-13,2.51-2.05,3-5.45,3.1-8.66.1-4.64.09-9.27,0-13.91.38-5.31-1.41-10.16-3.13-15-.59-1.67-1.82-3.31-.42-5.15,3,.1,3.72,2.57,4.54,4.64,2.64,6.67,4.5,13.53,4.42,20.8a22.89,22.89,0,0,0,.17,5.43A41.7,41.7,0,0,1,316,694c.34-1.92.87-4.48,4.05-3.64.65,6.88,4.43,13.51,1.67,20.67.46,3-2.25,5-2.23,7.88,1,7.62-5,11.63-8.64,16.85-3.24,3.31-7.57,4.14-11.82,4.54-6,.58-11.41,3.46-17.31,4.41-2,.32-2.53,1.94-2.61,3.72a23.4,23.4,0,0,0,.75,8.37c.54,12.61,1,25.22,2.28,37.79,1,9.43,2.49,18.77,4.15,28.1.43,2.41,1.36,4.9-.63,7.12h-1.93a26,26,0,0,1-5-10.7q-3.84-17.29-7.25-34.66c-1.68-8.49-1.14-17.2-1.22-25.83C270.11,753.14,270.64,747.66,269.83,742.21Z"/><path class="cls-14" d="M477.65,340.54a44.23,44.23,0,0,1,4.16-20.6c1.26-2.82,1.51-6.07,2.36-9.09,2.15-7.6,4.92-15,4.39-23.21a56.17,56.17,0,0,0-7.11-23.49c-7.84-14.42-10.18-29.5-4.4-45,2.54-6.8,4.07-13.86,6.7-20.61,3.5-9-.8-16.8-4-24.83s-7.9-15.3-8.72-24c-.64-6.82-1.45-13.85,2.83-20.09a5.92,5.92,0,0,0,.66-2.37c2.31-14.25,9.2-26.62,15.9-39.08,1-1.83,2-3.66,2.94-5.5,3,.84,1.88,3.07,1.45,4.81-1.36,5.49-3,10.91-4.44,16.38-3.65,14-3.93,28.31-3.35,42.62.31,7.53,3.93,14.06,7.82,20.29,6.05,9.7,8.72,20.06,6.88,31.44-1.13,7-3.92,13.41-6.92,19.7a41.37,41.37,0,0,0-3,27.67c2.62,9,7.15,17.09,11.24,25.41,2.65,5.37,5.12,10.8,5.68,16.87,1.22,8-2.27,14.78-5.35,21.68-1.69,3.8-3.09,7.71-4.75,11.52-3.89,8.92-5.58,18.05-2.34,27.64.72,2.16,1.31,4.5.63,6.86-5.77,5.46-12.06,4.18-14.57-3.15-1.56-4.58-3.63-9.07-3.44-14.69,0-.05-.75.73-.09.74.17,0,.16.14.13.43C478.84,339.74,478.85,340.61,477.65,340.54Z"/><path class="cls-15" d="M192.75,95.85c-1.45,2.92-3.48,1-5.07.39-6.36-2.34-12.67-4.67-19.43-5.87-3.58-.63-6,1.85-9.47,1.68-10.62-.5-21.27-.39-31.9-.13-16.38.41-31.42,5.66-45.83,13.15a88.1,88.1,0,0,0-20.49,14.56c-5.85,5.59-9.05,12.86-12.93,19.67a15.13,15.13,0,0,1-3.53,4.46,50.63,50.63,0,0,1,4.95-13.18c1-1.89,2.26-3.74,1.76-6.07A132.42,132.42,0,0,1,81.41,83c6.33-5.76,14.31-9.28,23.48-11.8C89.69,67,75.34,62.43,59.78,61.82L79.65,50.71c.48,1-.78,2.94,2.36,2.24,15.72-3.49,31.62-3.1,47.52-1.14a58.51,58.51,0,0,1,20.64,6.95c1.72.93,4.08,1.84,3.88,4.08-.26,2.83-3.18,2.43-5.14,2.88-4.69,1.1-9.61,0-14.4,1.57,13.67-.13,24.79,6.06,35.41,13.71,5.92,4.26,12.77,7.06,18.74,11.31C190.14,93.37,191.82,94.16,192.75,95.85Z"/><path class="cls-16" d="M306.78,168.88q-.64,2.42-1.28,4.83c-1.89-2.83-4.26-3.61-7.54-2.28-8.63,3.5-17.42,1.48-26-.08-5.42-1-10.63-2.12-16.18-1.38s-11.27-.52-16.83,1.11c-5,1.46-7.13,5.14-8.16,9.82.23,2-1.3,3-2.57,4-8.07,7.64-10.68,17.28-9.94,28a31.36,31.36,0,0,0,2.28,10.64c1.69,3.83.69,6.92-1.85,10-5.76,7.07-13.68,11.45-20.7,16.93-4.17,3.26-8.69,6.07-12.76,9.47a2.57,2.57,0,0,1-2.7.79c.57-7,2.82-13.7,4.44-20.45,1.42-5.92-1.13-10.11-3-14.82-3.43-8.68-7.2-17.21-9.66-26.3-1.35-5,0-9.48.91-14.06.67-3.46,0-6.93.78-10.36.12-.55-1.16-1.42-1.79-2.14,1.44-2.29,3.91-2.36,6.17-2.7,14.45-2.19,29-3.41,43.57-4.72,12.89-1.15,25.78-2.15,38.74-1.87,13.93-.16,27.8,1.24,41.72,1.27C306.32,165.45,308.91,165.87,306.78,168.88Z"/><path class="cls-17" d="M499.48,668.91c-3.67,4.56-8.69,1.4-13,2.28-5.48.63-10.49-1.39-15.6-2.8-5.64-2-10.67-5.24-15.92-8a7,7,0,0,1-2.27-7.2c.4-2.12.79-4.25,1-6.39.35-3.93-2.11-5.88-5.86-4.72-1.74.54-3.38,1.48-5.21,1.62-3.51.26-5.46,2-5.86,5.55a8.84,8.84,0,0,1-1.5,4.17A5.22,5.22,0,0,0,434,657c.58,4.38-1.37,5.41-5.44,4.78-4.32-.67-8.94-1.38-11.1,4.19-.24.63-1.13.2-1.56-.4-1.5-5.35-.42-10.81-.73-16.21-.2-3.44.35-6.92-.46-10.33-.39-8.14.07-16.16,3.78-23.65A124.12,124.12,0,0,1,427,600.34a1.5,1.5,0,0,1,1.41-.38c1.91,1.91.75,4.16.39,6.14-.95,5.15.43,9.12,4.9,12a40.75,40.75,0,0,0,3.72,2.48c9.66,4.89,11.41,4.24,15.29-5.79,1-2.48,1.89-5,2.73-7.5a13.93,13.93,0,0,0-6-16c-3.72-2.25-3.92-3.9-.36-6.38s7.37-3,11.51-3.89c7.52-1.58,8.74,3.6,10.88,8a78.55,78.55,0,0,0,6,10.9A12,12,0,0,0,491,604.36c3.88-1.32,4.67-3,3.08-6.78-2.24-5.33-5.84-10.13-6.17-16.19.43-1.23.88-2.44,2.54-2.27,2.56,4.63,3.16,10.07,6,14.6.78,1.25,1.22,2.71,2.46,3.67,5.57,4.31,5.56,4.32,1.4,9.94-2.59,1.91-3.42,4.8-4.35,7.66s-2.13,5.57-3.56,8.9c7.32-.61,14.2.61,21.13.9a23.06,23.06,0,0,1,2.5.06c1.86.29,4.62-.15,4.51,2.61-.09,2.34-2.61,2.86-4.61,3a113.57,113.57,0,0,1-19.43-.15c-3.8-.45-7.64-.48-11.41-1.12-3.18-.54-5.29.8-6,3.87-2.35,10.76-3.53,10.44,7.77,12.54,7.72,1.43,15.56,1.24,23.38,1.22,2.27,0,4.71-.47,6.63,1.37l-5.62,4.11c-5.09,2.43-10.42,1.31-15.63.79-4.95-.48-9.85-1.5-14.75-2.39a16.34,16.34,0,0,0-11.92,2.2c-3.81,2.34-3.91,5.07.29,7.29a46.45,46.45,0,0,0,21,5.64C493.71,665.86,496.9,666.44,499.48,668.91Z"/><path class="cls-18" d="M182.57,260.79c9-8.1,19.62-14.06,28.82-21.89,1.39-1.19,2.74-2.41,4.09-3.64,4.06-3.68,5.53-7.37,3.41-13.31-4.36-12.26-2.36-24.15,5.32-34.87.95-1.33,1.95-2.71,3.69-3.16,1.14,2.35-.35,4.21-1.34,6-6.65,12-6.65,24.18-1.9,36.89,2.1,5.61,3.63,11.33,7.74,15.88,2.47,5.06,6.92,8.31,10.95,11.91,3.43,3.06,7.26,5.73,9.36,10,.78,5.23-1.32,10.34-.66,15.59.24,1.93-.2,3.93.41,5.83,4.7,4.53,10.38,7.73,15.73,11.32,14,9.36,27.33,19.57,41.23,29,1.6,1.08,3.49,2,4.13,4.15,5,4.1,9.68,8.73,17.07,8.07,3.41-.3,5.86-3,9.24-3-7.92,7.28-12.69,7.48-23.1,1-7-4.34-13.78-8.92-21.13-12.59-5.17-4.67-11.07-8.39-16.69-12.45-4.71-3.4-9.61-6.53-12.88-9.36,6.86,5.58,13.43,13.62,21.22,20.4a1.52,1.52,0,0,1,.37,1.38,53.1,53.1,0,0,0-6.93,11.82c-.6,1.52-1.2,3.05-2.84,3.8-1.64,1.12-3.18,2.16-3.91,4.3-1,3-3.09,2.47-5.1.86a8,8,0,0,1-2.63-3.59c-4.68-13.65-12.88-25.5-19.35-37.94-.18,5.92,1.14,12.14-1.35,18.14-.86,2.09.24,4.34-.17,6.42-.51,2.61.62,6.38-3.89,6.77-1.26-1.57-1.12-3.45-1.06-5.25.54-18.66-2.43-37.05-4.22-55.53-.51-5.31-2.47-9.53-7.93-11.54-2.33-.86-4.19-2.68-6.17-4.18-2.32-1.76-4.48-2-6.62.24-9.32,9.68-19.61,18.44-27.88,29.13a23.19,23.19,0,0,0-3.95,6.87c-.72,1.69-2.05,1.82-3.17.74-4.6-4.46-10.21-8.06-12.64-14.42-.59-4.11,2.56-4.21,5-4.1,3.08.13,4.42-1.42,5.34-3.86C179.69,268.76,181.12,264.77,182.57,260.79Z"/><path class="cls-19" d="M325.64,649.2c-2.49-12.28-4.89-24.58-7.53-36.82a10.27,10.27,0,0,1,.41-6.29c3.72-9.33,3.42-18.93,2.44-28.72a56.92,56.92,0,0,1,.79-14.31c3.57-22.39,3.74-45,2.6-67.47-1.07-20.95-5.59-41.53-11.12-61.81-.39-1.46-.9-2.84-.18-4.67,2.27,3.84,1.46,9.08,6.31,11.69.73-9.12.25-17.82-3.18-26.23-.79,5.07,2.7,9.86.68,16.26-5.43-9.38-5.91-19.16-8.13-28.39,7,4.69,9.94,11.81,12,19.53,4,15.09,7.08,30.39,9.55,45.77,1.4,8.71,1.84,17.62,2.63,26.45,1.34,15,1.41,30.12,4.8,44.89,1.47,6.36,5.05,11.91,7,18.09-.19,2.58-1.45.79-2,.38-7.86-5.45-8-5.5-10.24,3.91-1.46,6.07-3.29,12.09-3.52,18.41-.12,3.49.87,4.8,4.19,2.61,2.82-1.87,6-1.21,8.62-.18,3.78,1.46,7.46,2.4,11.5,1.89.45-.06.67.57.41,1.1.43,2.45-1.48,4-2.29,6-.37,2-.16,4.6-3.39,4.36-9.48-.72-15.65,4.89-21.47,11.18-2.27,3.72-4,7.59-3.32,12.86,5-3.55,9.74-6.69,14.28-10.09,2.86-2.14,6.69-3.13,8.15-6.93a16.31,16.31,0,0,1,7.9-2.7c2-.09,4,.08,6-.56,1.5-.21,3.45-.55,4,1.05.64,1.92-1.39,2.77-2.75,3.65-10.79,6.94-18.17,16.38-21.58,28.87a30,30,0,0,0-1.25,8.34A41.82,41.82,0,0,1,330.43,661c-3.82,5.26-3.05,8.6,2.15,12.75a2.43,2.43,0,0,1,1.18,2.52c-4.9,2.56-7.63-1.82-11.21-3.48a9.58,9.58,0,0,1-2.58-5.37c.19-2.28,1.66-4,3.12-5.4C327,658.23,328,654.1,325.64,649.2Z"/><path class="cls-20" d="M192.75,95.85C183,90.51,173.2,85.11,164.08,78.67c-8.75-6.17-18.26-9.88-29.09-9.78-1.3,0-3.21.26-3.37-1.29-.19-1.79,1.84-2.23,3.23-2.37,5.57-.59,11.24.16,16.74-1.32.61-.17,1.35,0,1.86-1.45a50,50,0,0,0-19.85-8.53,139.62,139.62,0,0,0-58,1.67c.32-2.69,3.89-2.31,4-4.89h0c2.44-1.27,5.26-1.9,7.15-4.14a122.3,122.3,0,0,1,34.76-14.76c6.29-1.51,12.47-3.52,18.95-1.06,9.68,1.82,17.83,6.93,25.3,12.84,6.09,4.82,12.46,9.25,18.54,14.07A57.89,57.89,0,0,1,200.65,78c1.21,2.47,1.08,5.63,3.8,7.32.11.19.21.39.31.58Z"/><path class="cls-21" d="M471.45,536.35l3.57-2c2.73-2.6,6.35-2.62,9.72-3.18,4-.68,6.19-2.78,6.7-6.78.66-5.22,3-10.14,2.74-15.56-.07-1.42-.17-3.56,2.4-3.49,1.54,2.45.91,5.21.75,7.77-.3,4.73,1.21,8.06,5.82,9.74a6.71,6.71,0,0,1,2.41,1.73,10.32,10.32,0,0,0-3.51-2.33,7.76,7.76,0,0,1-4.63-7.59c0-6.78-.2-13.54.61-20.32a301.32,301.32,0,0,0,2-41.18,25,25,0,0,1,.27-5c1.12-3,.49-6.24,1-9.32.32-1.85,1-3.44,3.16-1.38,1.49,1.46,3,.63,4.61.26,1.89-.43,3.67-2.42,5.81-.65.82,11.22-.82,22.42-.45,33.59.37,11.37-.45,22.76,1.1,34.13,1.32,9.66,4,17.9,13.33,23,2,1.11,3.19-.52,4.56.4a3.6,3.6,0,0,1,.4.28c5.69,4.93,5.47,5.94-1.93,8.83-23.3,9.28-47.77,13.67-72.45,17.14-3.21.45-6.38.1-9-2.07-5.69-4.76-12.11-8.76-16.28-15.16a2.48,2.48,0,0,1-1.8-2.94c11,4,22.56,1.94,33.83,2.92C468,537.39,469.88,537.59,471.45,536.35Z"/><path class="cls-22" d="M285.61,829.8c-1.32-8.61-2.78-17.21-3.95-25.85a351.4,351.4,0,0,1-3.1-47.86c-.63-2.6-.43-5.18-.12-8.33,2.84,1.18,3.32,3.53,4.15,5.49,4.87,11.41,9.05,23.11,13.69,33.7.83-11.45-2-23.68.83-35.85.33-1.44.27-3.53,1.8-3.83,1.9-.38,2.66,1.7,3.34,3.15a82.91,82.91,0,0,1,6.84,19.94,82.88,82.88,0,0,0-.42-29.59c-.31-1.44-.66-3.88,2.37-3.56,1.85,2.16,2.1,4.89,2.48,7.49,2.15,14.8,4.61,29.56,6.61,44.39,1.66,11.31,2.6,22.7,3.79,34.06.24,2.28.53,4.66-1.14,6.65Z"/><path class="cls-23" d="M205.75,129.65a8.5,8.5,0,0,0-7.68-.54c-4.95,2-8.12-.43-10.72-3.62-2.46-3-.76-6.9,1-9.27C195.55,106.74,201,95.91,210.13,88a6.18,6.18,0,0,1,3.39-1.71c1.45-.22,3.6-.71,2.23-3.23a279.22,279.22,0,0,1,29-12.6c10.68-4,21.08-3,31.66-1.22,6.13,1,12.49,1.12,18.36,3.58l-.51.6c-1.89,1.08-3.87.71-5.84.35-6.88-1.23-13.82-2-20.73-3.11-9.74-1.5-18.81,1.12-27.74,4.55-1.64.64-2.9,1.73-2.87,3.67s1.64,2.22,2.92,3c7.81,4.73,15.72,9.3,23.92,13.35,1.31.65,3.07,1.5,2.6,3.19-.54,1.94-2.67,1.9-4.23,1.63-5.1-.9-10.29-.55-15.4-1.36a32.35,32.35,0,0,0-13.4.47c3.56,4.15,5.83,8.94,10.79,11.46a17.61,17.61,0,0,1,5.52,5c2.88,3.6,6.35,4.14,10.68,3.25,9.13-1.86,18.38-3,27.53-4.82,1.86-.36,5.12-2,5.44,2.24-3.19,2-6.92,2.16-10.45,2.86-12.33,2.46-24.74,4.41-37.18,6.21-11.6,2-23.29,3.41-34.94,5C209.11,130.63,207.26,131.3,205.75,129.65Z"/><path class="cls-24" d="M320.62,667.17l2,5a8.8,8.8,0,0,0,7.36,4.21c4.6.09,9,1.77,13.58,1.37,7.1,0,13.7,2.6,20.54,3.92,4.9.93,9.71,2,14.64.44,1.84,2.63,2,5.67,2.19,8.72.95,9.06,3.52,17.74,6.19,26.4.77,2.48,2.21,4.85,1.56,7.62-18.64-4.17-37.27-8.41-55.93-12.48-3.63-.79-7.4-.91-11.1-1.34.37-7.07-3.21-13.75-2-20.89-.88-4.73-.32-9.46-.07-14.19.27-5.21-.71-6.17-5.85-5.55-3.1.37-6.12,1.25-9.25,1.47-4.31-.72-8.51,1-12.81.59-1.15-.16-2.56-.33-2.86-1.49-.35-1.38,1.13-1.78,2.11-2.28a10.92,10.92,0,0,1,3.22-1.13,75.15,75.15,0,0,0,19.51-1.33C316,665.74,318.51,665.23,320.62,667.17Z"/><path class="cls-25" d="M121.94,789.92c3.5,2.81,5.21,7.57,9.9,9.09a5.07,5.07,0,0,0,1.12,1c13.26,5.68,20,16.56,23.65,29.83h-13.8c-1.8-2.55-4-4.88-5-7.71.12,2.49,1,5.27-1,7.71l-85.85,0c.83-3.52,4.08-4.71,6.65-6.13,18.73-10.38,37-21.6,56.48-30.6C116.67,791.86,119.07,790.29,121.94,789.92Z"/><path class="cls-26" d="M488.64,581.08c1.18,6.13,4.49,11.39,7.14,16.89,1.64,3.4,1,5.38-2.54,7a13.8,13.8,0,0,1-17.34-4.64c-3.24-4.47-4.65-9.82-7.74-14.35-1.68-2.47-1.63-5.19-6.64-3.61-3.21,1-7.19,1-10.59,2.68a12.46,12.46,0,0,0-4.39,4.11c5.25.33,7.23,3.93,9.22,7.71a13.07,13.07,0,0,1,.26,12.37c-1.39,3-2.38,6.18-3.54,9.28-2.75,7.32-4.71,8.12-11.83,5.24a37,37,0,0,1-11.78-8c-3.3-3.19-1.15-7.54-1.16-11.38a17.48,17.48,0,0,1,.8-3.85c-.76-1.88.62-2.84,1.67-4a191.43,191.43,0,0,1,19.49-31.12c.7-.9,1.23-2.2,2.64-1.87,6.18,1.43,12.47-.26,18.65.79C483.11,558.83,490.66,570.26,488.64,581.08Z"/><path class="cls-27" d="M325.61,606.24c5.8-7.09,12.43-12.76,22.37-11.65,3.09.34,2-2.46,3.33-3.3-.69,3.78.65,5.1,4.67,5a20.07,20.07,0,0,1,11.61,3c3.39,2.28,7.13,2.78,11,2.83,8,.09,16,0,23.81,2.12a4.24,4.24,0,0,1-2.42,3,35.79,35.79,0,0,0-12,12.26c-.59,1-1.1,2.1-2.54,2-1.4-.66-2.37-.18-3.44.9a66.77,66.77,0,0,1-39.54,19.77c-2,.26-4.27,1.47-5.83-1,1.2-16.68,9.52-29,23.21-38.06,1.05-.69,2.61-.74,3-2.31-1-1-2.19-.4-3.27-.57-2,.12-4.18-.46-6,1l-8,2c-3.55,4.06-8.5,5.68-13.38,7C329.31,611.06,326.07,610.44,325.61,606.24Z"/><path class="cls-28" d="M388.7,724.84a123.14,123.14,0,0,1-9-33.82c.84-8,0-6.82,8.36-7.36,6.64-.43,13.21-1.52,19.83-2.06,7.46-.62,7.46-.64,9.44,5.49,1.24.86,1.33,2.2,1.52,3.52,1.9,13.63,3.39,27.36,8.89,40.2a1.49,1.49,0,0,1-.55,2.13c-10.92-2.36-21.87-4.56-32.71-7.21C392.52,725.25,390.5,725.81,388.7,724.84Z"/><path class="cls-26" d="M516.94,648.16c-12.57-.08-25.23.94-37.53-2.85-2.61-.81-4.46-.73-3.31-5.14,3.75-14.33,3.44-14.57,18.57-11.67,7.1,1.37,14.24.41,21.36.73,1.55.07,2.85-.58,4.61-2.62-11-.49-21.07-1.83-32.44-1.32,5.16-3.83,5.76-8.76,7.11-13.18.89-2.94,1.95-5.15,5.06-5.92,2.52-2.49,6-2,9-2.87a11.09,11.09,0,0,1,5.3-.18c3.48,1,6.69.24,9.88-1.08,6.54,4.45,6.39,15.36.88,22.78-3.52,3.77-3.92,8.34-3.64,13.2.15,2.5.79,5.32-1.85,7.18Z"/><path class="cls-29" d="M490.63,246.53a43.27,43.27,0,0,1,3.22-29.92c4.63-9.76,8.26-19.8,6.72-31.08a36.31,36.31,0,0,0-6.3-16.56c-10.13-14.07-9.47-29.86-8.43-45.89.82-12.68,4.4-24.74,7.91-36.82.38-1.28,1.06-2.53-.41-3.56-1.1-2.41,1.53-3.37,2.16-5.14.56-1.57,3.71-.38,3.45,1.74-.41,3.24,2.47,6.6-1.18,10-1.51,1.41-.31,5.73-.32,8.72,0,2.82,0,5.63,0,9.81,1.63-3.91-.05-7.1,2.12-9.56.26,7.4-1,15.18.23,22,1.33,7.35-.3,14.54,2.07,21.61-2.23,0-1-1.82-2.2-2.14-1.12,3.56,3.11,5.21,3,8.42,0,1.19,1.47,3.68-1.37,1.08-.39-.36-.64-.72-.76.06s-.2,1.79.07,1.92c5.43,2.54,4,6.34,1.63,9.78,1.22,1.64,1.48-3.63,2.6.29,1.48,5.15,3.42,10.22,4.26,15.47.37,2.34,4.08,5.26-.12,7.72-.53.31,0,.83.51,1.07,4.49,2.25,1.74,5.32.92,8.17-1.43,5.69-4.63,10.15-8.25,14.82a45.1,45.1,0,0,0-9.74,32.11C492.58,242.71,493.86,245.39,490.63,246.53Z"/><path class="cls-30" d="M385.66,621.48c3.6-7.68,9.53-13.09,16.78-17.22l1.05-.42a19.12,19.12,0,0,1,10.45-1.79c3.12-1.33,6.52-.35,9.7-1.19,1.25-1.12,2.53-1.79,4-.35-2.59,5-5.07,10-7.77,14.88-4,7.24-3.75,15.2-4.16,23.06a19.71,19.71,0,0,1-.11,7.95c-8,3.39-16.67,3.27-25.11,4.13-3.49.36-7.13,1.54-10.71.18-2.56-2.7-1.3-5.82-.95-8.83a42,42,0,0,1,2.48-10c1.27-3.08,1.61-6.48,3.22-9.44A2.69,2.69,0,0,1,385.66,621.48Z"/><path class="cls-20" d="M212.78,76.91c.92,6.2-4.38,6.84-8,9h0c-2.23-2.2-3-5.24-4.45-7.86-4.31-7.22-7.07-15.25-12.88-21.74-3.21-3.58-4.88-8.56-7.77-12.66C172.83,33.92,164,26,156.46,16.94c-2.78-3.32-7.39-4.53-10.11-8-.89-1.13-3.17-2.16-.57-3.85A120.6,120.6,0,0,1,163.16,9.6c10.79,3.81,18.25,11.88,25.91,19.68,6.92,7,12.39,15.21,17.4,24.58,2.07-5.32,1.18-9.87.59-14.52,2.85,3.56,5.64,7.06,6.59,11.62-1.36,3.33.89,6.32.94,9.56C214.68,66.09,215.06,71.63,212.78,76.91Z"/><path class="cls-31" d="M415.43,646.11c.09-2.55.19-5.11.28-7.67,1.62,7,.36,14.1.74,21.14.12,2.15.11,4.31.15,6.46a3.22,3.22,0,0,1,.95,1.69c1.45,6.56,1.45,6.51,7.91,4.79,5.52-1.47,10.68-4.4,16.64-4.13,2.47,1.32,5.45,1.68,7.41,4-.29,21.66-7.49,41.07-19.24,59-.76,1.15-1.41,2.3-3.09,1.59-6.23-13-7.51-27.18-9.66-41.14-.25-1.61.28-3.36-.94-4.78-3.8-11.71-2.5-23.79-2.62-35.77A7.55,7.55,0,0,1,415.43,646.11Z"/><path class="cls-9" d="M322.78,829.8l-4-40.85c.72-1.63.23-3.24,0-4.88-1.33-9.06-1-18.15-.41-27.25a13.34,13.34,0,0,1,.65-3.42c.86-2.43,1.95-4.76,4.94-4.94s2.42,3,3.75,4.45c3,10.41,6.07,20.79,8.92,31.23,4.08,14.93,6.93,30.14,9.78,45.66Z"/><path class="cls-32" d="M98.73,150.64a11.24,11.24,0,0,0,5.73-8,2.44,2.44,0,0,1,.49-1.32c9.29-7.52,16.75-17.56,29.05-21.08-5.38,11-11.15,21.73-16,32.88-6.41,14.77-9.83,30.5-13,46.22-.49,2.46-1.64,2.33-3.21,2.51A65.09,65.09,0,0,1,93,179.73c1-2.32,0-4.58-.39-6.8-1.33-8.41,1.38-15.63,6.16-22.31Z"/><path class="cls-33" d="M490.63,246.53c2.49-3.57-.11-7.31.3-11.05,1.29-12,4.55-22.93,13.66-31.42,2.21-2.05,2.84-4.82,3.65-7.5.39-1.28.31-2.72,2.15-2.81,0,.64,0,1.28,0,1.92,1.8,2.59,1.16,5.32.5,8.07-1.48,6.2-3.06,12.36-6.13,18,.77-1.12.11-3.32,2.64-2.84.07,0,.12.24.13.38a2,2,0,0,1,0,.49,51.72,51.72,0,0,0-1.09,6.35c-.2,3.55-3.29,6.5-2.75,9.82.58,3.55,3.12,6.74,3.29,10.51.19,4.12,3.45,7.33,3.26,11.68,0,.74,2.16,2.57,3,4.41,2.51,5.45,4.1,11.24,6,16.84,1.48,4.32,2.49,9.4,1.17,14.3-.88-.07-1.72,1.93-2.64.05-.68-1.39-.52-2.9-.71-4.37s.87-4.07-1.13-4.26a5,5,0,0,0-5.12,3.87c-.47,1.64-.13,3.62-2,4.85-1.81-2-.22-4.35-1.23-6.2-1.35-8.14-5.35-15.23-8.86-22.51C495.78,259,492.57,253.06,490.63,246.53Z"/><path class="cls-34" d="M496.36,355.61c-1-7.24-4.4-14.15-3-21.71,1.63-8.61,5-16.6,9-24.33a28.78,28.78,0,0,1,5.77-3.89c1.67-.89,3.43-1.59,5.13-.25s.8,3.06.5,4.64c-.72,3.76-2.64,7.11-3.89,10.7-.56,1.63,1.26,1.84.65,2.91.93,3.83-3,5.7-3.49,9.37-1.12,8.79,1.36,16.55,4.41,24.42,1.91,4.92,4.58,9.69,4.08,15.26-1.35,3.93-.22,7.9-.15,11.85,0,1.44.5,2.88-.19,4.28-.4.9-.81,1.81-1.26,2.69-2,4-3.24,4.16-7.29.68-1.17,6.16-1.87,12.22-2.95,18.21-.21,1.14-.37,2.75-1.54,2.87-1.75.17-1.72-1.62-2-2.87-.39-7,.91-13.91,2.59-20.64a25.75,25.75,0,0,0-1.89-18.33c-1.75-3.56-2.62-7.5-4.32-11.11C495.81,358.87,495.32,357.23,496.36,355.61Z"/><path class="cls-35" d="M488.64,581.08c-.26-1.3-.47-2.61-.78-3.89-3-12.29-4.06-13.12-16.9-12.88,3.05-1.22,1.78-4.5,3.46-6.34-5.06-.15-9.78-1.23-14.45.38-9.25,3.18-15-1.23-19.2-9-2.19-4-5.29-7.57-6.56-12.1,5,4.11,10.13,8,14.81,12.42a12.27,12.27,0,0,0,10.86,3.42A408.36,408.36,0,0,0,524.75,539c2.35-.72,4.57-2,7.17-1.65-4.2,3.92-9.57,5.43-14.85,7.09-1.66.52-3.21.85-2.32,3.13-.16,1.8-1.54,2.4-2.91,3-6.25,3.71-13.64,3.72-18.76,6,5.19.85,12.29,0,17.55,5.66-.32,2.56-1.88,5-.61,7.72-1.27,2.66-4.11,3.14-6.29,4.54-2.92,1.45-5.81,3-8.77,4.33-1.42.66-2.88,1.75-4.53.46Z"/><path class="cls-36" d="M390.88,107.9c0,1.62-.09,3.24-.14,4.86.26,2.85,1.06,5.76-.86,8.39-.05.8-.11,1.61-.17,2.41.92,3.62-.28,7-1,10.51,2.25,3.19-1.29,5.72-1,8.7A51.61,51.61,0,0,1,386,159.13c-3.06-.29-2.44-2.54-2.3-4.44a598.23,598.23,0,0,0,1.15-70.59A186.55,186.55,0,0,0,377,37.15c-2.87-9.31-2.51-11.29,3.07-26.49-3.41,5.08-5.66,10.19-8.24,15.11-1.78,0-3.15,3.17-5.27.71,1-.8.48-2.58,1.95-3.1q2.57-4.8,4.94-9.7Q377,7.86,380.6,2a3.82,3.82,0,0,1,3.69-2c2.24.19,2.17,2.13,2.51,3.7,2.21,4.2,2.33,8.92,3.11,13.44.33,2,.8,3.88,1.11,5.84,1.8,26,.71,52.1,1,78.15C392.05,103.46,392.23,105.81,390.88,107.9Z"/><path class="cls-37" d="M121.94,789.92c-1,2.4-3.49,2.32-5.34,3.21-18.35,8.77-36,18.81-53.57,29a122,122,0,0,0-12,7.62,16.15,16.15,0,0,1-2.07-10.42,9.25,9.25,0,0,1-1.62-4.09c-1.12-5.42-.44-6.66,4.7-8.51,5.55-2,11.36-3.34,16.52-6.35a3.91,3.91,0,0,1,1.71-1.46q18.78-6.08,37.67-11.71c3.82-1.13,7.78-3.24,12-1.24Z"/><path class="cls-38" d="M496.36,355.61c2.11,5.53,3.74,11.3,6.45,16.52,4,7.65,1.83,15.09.39,22.63a76.08,76.08,0,0,0-1.83,15.62,11.46,11.46,0,0,0-.81,1c-.36,1.25.05,2.67-.81,3.8a4.38,4.38,0,0,1-4.33,1.76,2.46,2.46,0,0,1-2.09-2.91c.84-4.4-2.71-8.13-1.74-12.49-1.15-3.78-.21-7.68-.71-11.52-1.51-11.36-7.09-21.43-10-32.34-1.5-5.64-4-11.09-3.25-17.17,1.57-1.34.24-3.5,1.56-5.66.19,7,3.09,12.56,4.77,18.46C485.4,358.34,489.47,358.89,496.36,355.61Z"/><path class="cls-39" d="M241.66,334.58a2.9,2.9,0,0,0,2-2.64c.05-10.88,4-21.56,2.28-32.94q4.46,7.92,8.91,15.85c4.69,8.38,9.65,16.62,12.52,25.89a8.08,8.08,0,0,0,3,3.89c1.39,1.08,2.92.86,2.63-1-.71-4.54,2.2-4,4.9-3.94-1.13,4.15,2.27,6.42,4.37,8.64,3.58,3.79,5.34,6.85.63,10.87-1,.85-.78,2.73-2.16,3.52-1.55-1.52-.58-3.73-1.5-5.42.2-3.92-.71-7.4-3.81-10.16-2.92,2.08-2,6.56-5.53,7.95-3.41-.4-5.8-2.87-8.68-4.33a37.67,37.67,0,0,0-6.78-3.24,11,11,0,0,1-2.43-1.42,98.6,98.6,0,0,0-12.2-7.16c-1.8-.93-4.11-1.48-4.32-4.13C237.48,333.07,239.61,335,241.66,334.58Z"/><path class="cls-40" d="M169.86,145.15c-.29-2.14-.57-4.28-.86-6.42,2.55-2.94,6.19-2.76,9.54-3.23,7-1,14-1.82,21-2.64a17.92,17.92,0,0,1,4.13-.4,5.7,5.7,0,0,1,4.42,1.84c-3.7,1.88-5.6,4.5-5,8.81a37.3,37.3,0,0,0,3,10.88c.55,1.17,1.77,2,1.89,3.4-3.33,3.34-7.8,1.61-11.69,2.44-5.73,1.22-11.62,1.93-17.44,2.91-2.16.36-4.25.6-6.09-.93a5.32,5.32,0,0,1-1.94-4.65A64.35,64.35,0,0,0,169.86,145.15Z"/><path class="cls-41" d="M496.3,505.29c-1.08,6.93-2.23,13.84-3.64,20.72-.83,4-2.81,5.7-6.42,6.33s-7.48,1.33-11.22,2c2.13-2.88,2.2-5.13-1.41-7.11s-.38-5,.57-6c5.87-5.89,8.14-13.28,9.34-21,1-6.54,1-13.24,1.88-19.8.87-6.33-.41-12.86,1.91-19,2.45-1.47,2.14.92,2.26,1.87a49,49,0,0,1-.19,11.35c-.79,7.5,3.15,14.06,3.76,21.32,1.92-2.17,1.52-4.55,2.07-6.73.27-1.07.3-2.61,1.71-2.62s1.47,1.53,1.68,2.63-.19,2.29-.18,3.45C498.41,497,498.34,501.31,496.3,505.29Z"/><path class="cls-42" d="M245.91,124l47.7-8.34c2-2.37,5-2.42,7.66-3,6.79-1.41,13.38-3.55,20.08-5.26a25.81,25.81,0,0,0,14.88-9.92c3.48-4.19,5.47-9.61,10.34-12.66.83-3.59,3.26-6.4,5.23-9.27,5.36-7.81,9.59-16.4,15.91-23.57,2.85.68,2.53,2.93,2.49,5-8.18,17.58-19.12,33.4-31.05,48.59-4,5-9.75,6.68-15.44,8.52A249.87,249.87,0,0,1,284.34,123c-10.34,1.56-20.52,4.13-31,4.83a5.6,5.6,0,0,1-1.52-.23C250.17,125.86,246.81,127,245.91,124Z"/><path class="cls-43" d="M499.48,668.91c-10-2.42-20.59-1.87-30-6.81-4.6-2.4-7-7.27-3.92-9,3.43-1.87,6.62-5,11.36-4.32,11.42,1.59,22.76,4.24,34.43,3.45C513.14,661.92,506.33,665.43,499.48,668.91Z"/><path class="cls-44" d="M145.78,5.09c-1.18,3.38,2,4.9,3.62,5.6,9.3,4.05,13.89,13,20.71,19.48a78.77,78.77,0,0,1,13.76,17.49c5.75,10,13.46,18.93,16.9,30.23.39,1-.09,1.21-1,1C194.48,67.57,186,59.26,175.5,52.78c-5.22-3.24-9.17-8.05-14.43-11.27-6.62-4.07-13.61-7.35-20.56-10.75,5-2.84,9.29.94,13.9,1.64,3.32.51,6.16,2.87,10.55,2.87A127.45,127.45,0,0,0,141.54,5.32C143.15,3.51,144.49,5.48,145.78,5.09Z"/><path class="cls-45" d="M353.6,585.29c-3.46-.33-6.76,1.54-10.53-1.22a9.07,9.07,0,0,0-10.58.09c-4.17,3-4.82,2.41-4.87-2.56-.1-9.53,3.15-18.43,5.26-27.53.66-2.89,2.68-3.62,5.25-1.69,2.17,1.62,4.36,3.19,6.54,4.79,3.29,6.33,6.74,12.59,9.81,19C355.9,579.19,356.39,582.51,353.6,585.29Z"/><path class="cls-46" d="M306.6,400.64c-2.25,1.62-4.81,1.81-7.47,1.87-4.41.09-8.79-.16-13.22.79s-8.48-.71-10.24-5.51c-.59-1.61-1.38-2.11-2.92-1.35-3-1.49-2.92-4.6-3.74-7.23,2.53-6.13,5.15-12.22,7.54-18.41a2.79,2.79,0,0,1,2.1-1.94c-.93,4.87,2.73,7.53,5.42,10.35A257.71,257.71,0,0,0,306.6,400.64Z"/><path class="cls-47" d="M369.46,56.91c-.59-1.62-1.17-3.25-1.76-4.87a6,6,0,0,0-.37-5.82c-1.38-3.62-3.28-7.1-2.94-11.18-1.46-3.41.27-6,2.19-8.56,1.52,1.32,2.41-1.75,3.92-.56a6.73,6.73,0,0,1,3.63,4.47c6.57,22.12,12,44.43,11.4,67.75a6.59,6.59,0,0,1-.54,3.39c-2.39,1.25-2.81-.72-3.57-2.16C378.23,87,374.11,75,370.53,62.74A21.12,21.12,0,0,1,369.46,56.91Z"/><path class="cls-48" d="M449.51,672.35c-2.53-.65-5.34-.63-7.17-3-10.18-2.64-9.54-8.11-7.88-17.19,1.48-1.08.81-2.71,1.08-4.11.61-3.18,2-5.6,5.76-5.49a11.59,11.59,0,0,0,5.61-1.61c2.56-1.28,4.43-1.14,6.9,1s1.31,3.57,1.08,5.6c-.49,4.25-2.68,8.65.65,12.72a17.09,17.09,0,0,1-4.19,12.5Z"/><path class="cls-49" d="M497.54,492.56l-.27-4.89c-.7,3.66-1.3,7.3-2.34,11-3.52-.58-4.41-3.15-4.46-6.11,0-2.34-.05-4.7-1-6.8-3.14-6.7-.54-13.64-1.06-20.43-.1-1.31,1.15-3.15-1.06-3.94.36-8.14.59-16.28,1.19-24.4.18-2.46-1.25-5.22.95-7.45,2.25,0,2.21,1.87,2.22,3.17,0,5.51,2.85,10.59,2.35,16.16A2.1,2.1,0,0,0,495.2,451c2.55-.3,1.39-4,4.39-4.58,1.65,4.39.45,9,.82,13.48.48,9.54-.82,19-1,28.53C499.33,490,499.6,491.85,497.54,492.56Z"/><path class="cls-50" d="M470.38,667.19l16.1,4c-3.29,1.29-3.1,5.51-6,7.15-1.31-2.45-2.9-1.45-4.45-.32-4.14,3-7.73,6.71-12.1,9.44a3.21,3.21,0,0,0-1.11,4.75c1.18,1.93,2.88,2.11,4.66.82,2.61-1.89,5.89-2.13,8.66-3.63,1-.53,2.21-1.09,2.81.62-2.34,3.66-6.32,5.56-9.29,8.59s-6.53,2-9.17-1.66c-2.08-2.9-3.81-6.08-6.09-8.8s-.4-5,.21-7.34c.47-1.81,1.83-3.4,1.8-5.44-1.22-2.09-.45-4.22.06-6.25,1.33-5.34,2.9-6,7.95-4C466.39,665.85,468.07,667.45,470.38,667.19Z"/><path class="cls-51" d="M384.37,101.76c.95-22.8-4-44.68-10.23-66.38-.93-3.27-1.72-6.58-3.64-9.46A106.89,106.89,0,0,1,380.93,6.48c1.87.83,1.27,1.94.86,3-.34.93-.51,1.94-.93,2.83-4.68,10-4.38,19.64-.91,30.27,3.62,11.07,4.61,22.95,5.68,34.67,1.77,19.42,1.08,38.86.47,58.26-.22,6.87.52,13.94-1.35,20.76a2.83,2.83,0,0,0,.81,2.76c.35.09.52.25.49.48s-.09.4-.19.4c-.11,1.16-.21,2.33-.32,3.5a1.3,1.3,0,0,1-1.56.63c-2.53-1.77-1.47-4.57-2-6.91-.73-16.78.89-33.5,1-50.26C383,105.11,383,103.24,384.37,101.76Z"/><path class="cls-52" d="M327.68,752.91c-.36,1.4-.71,2-1.11,0-.32-1.62-.54-3.65-2.63-3.61s-2.82,1.88-3.48,3.71a27.53,27.53,0,0,0-1.32,12.15c.8,7.06-1.54,14.1.44,21.06a2.56,2.56,0,0,1-.82,2.72l-8.25-51.75a1.65,1.65,0,0,1-.12-2c.16-1.31.12-2.88,1.39-3.57,5.06-2.76,6.19-7.82,7.66-12.71,1.36,9,4.58,17.55,6.79,26.35C326.87,747.79,327.86,750.23,327.68,752.91Z"/><path class="cls-40" d="M262.82,164.62a492.66,492.66,0,0,0-51.66,3.22c-12.33,1.37-24.75,2.12-36.91,4.82-2.86-2.54-1.35-5.76-1.38-8.74,6.88-2.91,14.35-2.8,21.55-4,3.43-.57,7-2.24,10.62-.59,2.43,3.83,5.85,4.58,10.21,4,19-2.51,38.06-2.18,57.13-2.07,2.32,0,4.65-.18,6.93.47a3.63,3.63,0,0,1,1.49,1c-.39,2.38-2.28,1.4-3.57,1.48C272.44,164.53,267.61,163.83,262.82,164.62Z"/><path class="cls-53" d="M269.83,742.21c1.7,2.42,1,5.21.78,7.73-1.89,24.9,5.63,48.45,10.21,72.42.49,2.56,3.88,4.18,2.86,7.44h-15c1.16-1.81.83-3.85.84-5.82Q269.69,783.09,269.83,742.21Z"/><path class="cls-54" d="M499.57,459.47V447.25c-1.74,1-1.14,2.27-1.15,3.2,0,2.07-.81,3-2.95,3-2.48,0-3.17-1.21-3-3.39.41-7-2.1-13.65-3-20.5.45-9.35.35-18.74,2.14-28,.29,3.47,2.83,6.25,2.9,9.84,0,1.56-1.17,4.22,1.33,4.51,2.71.31,4.06-1.64,3.6-4.5a1.17,1.17,0,0,1,.21-.88c.13-.14.54,0,.82,0,2.4,7.18,1,14.6,1.38,21.91-.33,7.94-.95,15.88-1,23.83C500.85,457.4,501.64,459.07,499.57,459.47Z"/><path class="cls-55" d="M306.78,168.88c1-1.61-.19-2.26-1.34-2.91,1.3-1.57,2.93-.91,4.54-.75a23.64,23.64,0,0,0,9.72-.64c9.2-.83,18.13,1.45,27.16,2.41,9.73,1,19.43,2.23,29.1,3.72,3.16.49,6.83.54,8.06,4.61a1.44,1.44,0,0,1-.84,1.45l-4.65,3.14a1.24,1.24,0,0,1-1.86-.32c-8.95-3.88-18.56-4.65-28.06-5.78-12.82-1.52-25.68-2.63-38.52-4A18.07,18.07,0,0,1,306.78,168.88Z"/><path class="cls-56" d="M167.84,280.68c4.13,4.29,8.22,8.61,12.4,12.84.62.63,1.14,2.44,2.64,1,4.43,1.52,5.13,2.5,4,5.6-2.91-1.37-4.46-.45-5.87,2.52-1.62,3.45-2,7.62-5.37,10.16-5.44-5-10.76-10.05-15-16.14C161.69,290.7,165.39,286,167.84,280.68Z"/><path class="cls-57" d="M514.36,389.52c.69-5.57-1.29-11.33,1.15-16.79.43,4.48,1.58,9.31,1.1,13.35-1,8.22.68,16.46-1.07,24.55a34.63,34.63,0,0,1,.09,13.15c1.06,5.86.43,11.77.51,17.66.2,16.18-1,32.33.39,48.56.53,6.35.53,12.78,1.75,19.09,1.55,8.1,5.34,14.47,13.6,17.36.65.23,1,1.17,1.57,1.79-1.09,1.65-2.13,2.07-4.25,1.08-10.49-4.86-14-13.5-14.85-24.4a330.87,330.87,0,0,1-.16-46.06c.44-7.45.1-14.95.11-22.43-2.79-5.16-1-10.71-1.37-16.08-.24-8.38-.29-16.76,0-25.14A11.35,11.35,0,0,1,514.36,389.52Z"/><path class="cls-58" d="M503.53,573.42q3.24-1.74,6.49-3.47l8.92,1.3c4.13,2.21,4.69,6.61,6.36,10.33l2.9,7.58c.21,3.94-1.89,6.17-5.19,8.05-4.39,2.51-8.89,4.28-14,4.33-1.68-.31-4.17.43-4.52-1.93-.27-1.84,2-2.37,3.34-3.26,4-2.68,8-5.33,8.63-10.86.43-3.72-1.34-7.15-5.09-7.07C507.29,578.51,505.4,576.24,503.53,573.42Z"/><path class="cls-59" d="M510.51,323.68c-2,.13-2.48-.88-1.81-2.62,1.36-3.53,2.73-7.07,4.13-10.59.57-1.44,1.08-3-.08-4.21s-2.66-.33-4,.44c-2,1.13-3.78,2.95-6.37,2.87.41-1.42.53-3,1.27-4.23,3.32-5.48,4.3-11.43,4-17.7,1.62,1.32.06,3.57,2.29,5.92-2.12-6.15,1.53-7.86,5-10.17,3.11-2,3.3-.55,3.43,1.86a27.67,27.67,0,0,1,0,4.46c-.21,1.88.11,3.34,2.1,4-2.34,8.15-4.41,16.38-8.72,23.83C510.68,319.35,512.14,321.86,510.51,323.68Z"/><path class="cls-60" d="M346.57,84.88l-9.24,13c-5.79-8.08-14.85-12.16-22.48-17.92-4.34-3.26-10.75-2.73-16.08-4.44-1.52-.49-3.86.1-4.11-2.54l.1-.15c9.48.4,18.51,3.18,27.62,5.41C330.51,80.17,338.51,82.63,346.57,84.88Z"/><path class="cls-61" d="M361.15,279.78a46.82,46.82,0,0,1-10.07-7.18c-3.09-2.78-4.88-6.28-4.45-10.62.1-1.06.29-2.06,1.59-2.09,1.08,0,1.38.85,1.27,1.72-.65,5.51,3,5.1,6.68,5.15,6.94.1,13.89.26,20.61,2.47,1.52.5,3.28.3,4.92.42-2,3.84-5.76,3.73-9.26,4.1C367.82,274.23,363.79,275.66,361.15,279.78Z"/><path class="cls-62" d="M204.92,159.9c-10.81.35-21.36,2.78-32,4l-.15-2.11,35.05-5c1.39-1.69,3.39-2.13,5.36-2.26,18.68-1.22,37.26-4,56.05-3.26,2,.08,4-.06,5.92.64a3,3,0,0,1,1.77,2.1,1.62,1.62,0,0,1-.94,1.5c-6.82,1.46-13.82,1.39-20.68,1.55-14.74.34-29.35,1.9-44,3.16C209.15,160.43,207,161,204.92,159.9Z"/><path class="cls-63" d="M68.92,801c-1.24,3-4.63,2.09-6.68,3.69-.86.67-2.14.77-3.23,1.14C55.59,807,51.5,807.38,49,809.56c-2.89,2.45.93,6.44,0,9.79-9-.7-17.79,2.2-26.78,1.94L18,820.55c8.37-4,16.59-6.39,24-10.53,5.23-4.43,11.94-5.33,18.09-7.51C62.84,801.51,65.61,799.37,68.92,801Z"/><path class="cls-64" d="M479,690c-3.84,1.16-8.12,1.63-11.08,4.46-2.7,2.58-4.4.71-5.78-.83-1.71-1.89-2.63-4.89,0-6.47,5.17-3.1,9.27-7.49,14.18-10.83,2-1.33,4.89-3,4.21,2C478.41,682,479.28,686.1,479,690Z"/><path class="cls-65" d="M278.65,368.86c-2.95,6.83-5.06,14-8.72,20.53-1.26,1.49-2.86,1.33-4.51.93a2.72,2.72,0,0,1-1.22-.93c-1.38-2.87-.15-5.5.87-8.1,1.21-3.09,2.92-5.94,4.25-9,2.09-4.79,5-9.47,2.28-15a13,13,0,0,1,8.08.18c3.7,1.05-.15,3.63,1,5.18C281.21,365.14,279.28,366.79,278.65,368.86Z"/><path class="cls-66" d="M510.63,562.23C504,559,496.9,557.9,489.7,557.06c6.89-3.77,15-4.09,22-7.59,3.69.95,8.15-1,11.08,2.87A37.61,37.61,0,0,1,510.63,562.23Z"/><path class="cls-67" d="M376.67,179.59l1.86.32c.09.26.17.52.24.79a95.53,95.53,0,0,1,0,15.13l.05,8.75c.57,2.88.74,5.69-1.43,8.09l-2.95,4.08c-2.29.09-2.56-2-3.5-3.33-2.12.43-2.15,3.54-4.61,3.29-.43-1.22.13-2.23.67-3.24,1.49-1.74,3-3.46,2.58-6,2.73-.2,4.13-1.18,4-4.39a83.92,83.92,0,0,1,.85-18.18C374.83,182.87,375.06,181,376.67,179.59Z"/><path class="cls-68" d="M355.55,299.06c-7.16-7.36-16.58-8.72-26.15-9.88,11-2.89,21.87-4.76,32.42,1.38.16,1.45-.7,2.34-1.72,3.14A7.62,7.62,0,0,0,355.55,299.06Z"/><path class="cls-69" d="M343.16,319.71c-1.88-6.51-7.48-8.6-13.41-10.8,1.93-2.6,4.73-3.1,7.07-3.35,6-.63,12.22-2.48,18.06,1-2.66,3-6.81,4.24-9.15,7.64C344.18,315.69,344.72,318.19,343.16,319.71Z"/><path class="cls-70" d="M287.65,324c-9.62-7.39-17.26-16.76-25.44-25.67L294.31,321a3.47,3.47,0,0,1,1.32,3.06C293,322.94,290.31,324.4,287.65,324Z"/><path class="cls-17" d="M508.45,600.32c6.74.25,12.13-3.13,17.56-6.45,1.85-1.13.85-3.43,2.19-4.71a8.6,8.6,0,0,1-2.83,9.86c-1.21,1-.61,2-.8,3-1.44,3.05-4.05,3.82-7,3a29.35,29.35,0,0,0-8.22-.79C505.05,603.92,507.56,601.92,508.45,600.32Z"/><path class="cls-71" d="M471.45,536.35c-.2.7,2.27,1.91.28,1.83-11.65-.48-23.47,2.13-34.94-1.67a33.77,33.77,0,0,1-4.38-2.19c-.16-2.15,1.35-.35,1.91-.8,7.39.5,14.74,1.59,22.16,1.88l-.08,0c3,.58,6-.14,9,.33C467.25,537.32,469.66,534,471.45,536.35Z"/><path class="cls-72" d="M470.38,667.19c-2.68,1.47-4.78-.71-6.66-1.66-3.54-1.8-4.84-.35-5.68,2.61-.68,2.37-1.09,4.81-1.61,7.23l-5.08-2.59q2.08-6.25,4.19-12.51a1.77,1.77,0,0,1,2.57,0C461.64,663.57,466.31,664.85,470.38,667.19Z"/><path class="cls-29" d="M507.53,219.8c-2.62-.64-1.2,2.58-3.38,3,2.58-9.12,6.3-17.76,6.28-27.17.43-.67.76-1.8,1.29-1.91,1.2-.23.93,1.13,1,1.71.69,6.44-.1,12.72-3.49,18.3C508,215.77,509.29,218.16,507.53,219.8Z"/><path class="cls-73" d="M136.85,829.81v-11.9c.73,4.65,6.18,6.92,6,11.9Z"/><path class="cls-11" d="M98.76,150.62c-.35,3.08-2.74,5.19-3.79,8-1.79,4.72-2.83,9.45-1.5,14.52.58,2.19,1.16,4.54-.48,6.63-1.63-8.4-2.59-16.75,2-24.63A11.87,11.87,0,0,1,98.76,150.62Z"/><path class="cls-74" d="M522.77,552.34c-3.5-1.7-7.88,0-11.08-2.87,1.52.17,2.1-1.18,3.06-1.9,2.9-.94,5.41.55,8,1.41S525.31,551.18,522.77,552.34Z"/><path class="cls-75" d="M456.48,535.4c-7.47.36-14.91.29-22.16-1.89.74-.33,1.53-1,2.21-1C443.19,533.43,449.83,534.44,456.48,535.4Z"/><path class="cls-23" d="M212.78,76.91c1.2-7.6,1.67-15.2,0-22.81a2.88,2.88,0,0,1,.84-3.14c0,3,1.74,5.74,1.16,8.81a26.26,26.26,0,0,1,0,10.3c-.29,2.3.69,4.8-1.17,6.83Z"/><path class="cls-76" d="M520,645.22c2-3.3,1.72-7,1.39-10.53-.38-4.15.86-7.34,4.1-9.85-3,5.19-3.44,10.85-3.12,16.68C522.42,643.21,522.18,644.9,520,645.22Z"/><path class="cls-77" d="M515.63,423.78l-.09-13.15C517.59,413.1,517.65,420.39,515.63,423.78Z"/><path class="cls-78" d="M413.94,602.05l-10.45,1.79C406.59,601,410.1,600.56,413.94,602.05Z"/><path class="cls-79" d="M525.3,581.58c-2.52-3.2-3-7.62-6.36-10.33C524.54,572.55,524.32,577.43,525.3,581.58Z"/><path class="cls-75" d="M465.38,535.7c-3,.41-6,1.09-9-.33A9.94,9.94,0,0,1,465.38,535.7Z"/><path class="cls-80" d="M427.64,600.51l-4,.35c1.49-2.49,4.77-2.28,6.54-4.35-.56,1.31-1.12,2.63-1.67,3.94h-.44Z"/><path class="cls-29" d="M499.33,90.43c-.34,1.91,1.57,4-.31,6.29A6.51,6.51,0,0,1,499.33,90.43Z"/><path class="cls-15" d="M86.8,46.58c-1.41,3.06-4.19,3.76-7.15,4.14C81.65,48.68,84.22,47.63,86.8,46.58Z"/><path class="cls-20" d="M214.82,70.07c0-3.43,0-6.87,0-10.3A12,12,0,0,1,214.82,70.07Z"/><path class="cls-81" d="M127.86,378.52l-9-7c4.4-6,10.74-9.67,16.51-14,1.46-1.1,2.91-.41,3,1.75.11,5,5,1.91,7.08,4.14,1.28,1.38,2.48-1,3.48-2.34,2.64-3.64,6.44-6.2,10.28-8.2,4.17-2.17,8.43-4.72,13.51-4.64,2.12,0,2.81-1.26,2.64-3.3-.19-2.45-1-4.86-.51-7.35,2.27-.23,1.46-1.39.44-2.05-7.21-4.6-7.4-9.89-2.82-16.8,1.74-2.64,2.9-3.93,5.87-3.29,2.38-.8,3.73,1.05,5.2,2.2a372.8,372.8,0,0,0,46.33,30.89c6.37,3.62,13.34,5.94,19.69,9.55,2,1.13,4.34,1.85,5.1,4.41.13,4.65-.59,9.25-.54,13.91,0,3.86.32,7.58,1.89,11.13-.9,2.15-.41,4.22.25,6.32,9.4,30.09,14.6,61,18.5,92.23a502.29,502.29,0,0,1,3.26,80c-.19,5.33.28,11-2.2,16.07-2.65-.07-1.26-1.73-1.55-2.88,1.49,7.6-.78,15-1.24,22.47,0,.67,0,1.33-.1,2-.78,7.64-2.33,8.26-8.86,4.32-15.38-9.31-29.91-19.83-44.22-30.67a129,129,0,0,1-35-40.39c-4-7.17-6.22-14.8-.77-23,5-7.59,8.07-16.36,12-24.62,5.79-12.23,4.85-24.11-2.1-35.89-2.52,9.1-4.92,18.18-8.6,26.82-.13.31-.22.63-.35.94-.93,2.32-1.76,5.26-4.69,5.13-3.13-.14-4-3.11-4.56-5.79a403.18,403.18,0,0,0-12.87-46.53,68.93,68.93,0,0,0-7.47-16.25c-1-1.55-2.68-3.13-1.5-5.38a58.07,58.07,0,0,1-2.46-5.91C147.64,393.74,138.59,385.43,127.86,378.52Z"/><path class="cls-82" d="M153.83,412.46c.69,4.75,4.89,7.46,6.61,11.82a333.35,333.35,0,0,1,16.42,56.51c.4,2,1.06,4.32,3.09,4.78,2.2.5,2.82-1.95,3.42-3.55,3.88-10.34,7.59-20.74,9.67-32.13,3.79,3.16,3.82,7.74,5.64,11.39,5.12,10.21,2.25,20-2,29.52-4.38,9.81-9.39,19.33-14.1,29-1.23,2.52-1,5.09-.22,7.74,3.84,12.69,11.87,22.78,20.54,32.32,17.34,19.06,39.13,32.42,60.53,46.22,2,1.32,4.54,4.4,6.15,3.4,2.39-1.47,1.88-5.21,2.12-8.16.61-7.67,2.2-15.24,2.69-23l.47,4.33c1.42,1.72,1.16,3.74.93,5.7-.46,3.94-.5,7.94-1.38,11.82-1.8,8-.52,15.69,1.52,23.46s3.53,15.49,3.14,23.52c-.12,2.49-.17,5-1.41,7.23a2.86,2.86,0,0,1-1.15,1.06c-4.33,2.74-9.09,1.37-13.55.94-9.13-.9-18.78.26-27-5.55a72.45,72.45,0,0,1,7.76,6.09,38.36,38.36,0,0,1,6.67,8c1.34,2.22,3.61,4.39,2.05,7.24-1.7,3.11-4.94,2.43-7.64,2.08A342.11,342.11,0,0,1,200.8,666c-7.71-2.06-15.46-3.95-23.19-5.89-11.43-2.85-21.78-8.14-32.18-13.32-8-4-8.79-7.55-4.12-15.06,2.46-3.95,5-7.84,7.62-11.7,2.74-4.06,3.89-4.4,8.09-1.57,7,4.75,14.53,8.73,22,12.75,1.27.69,2.47,1.79,4.36,1.16-.09-3.93-1.78-7.17-3.85-10.45-10.55-16.72-21.64-33.09-31.08-50.5-4-7.31-3.83-13.7,1.67-20.2,3.85-4.54,8.56-8.41,11.26-13.91,1-2,2-3.82,2.07-6.07.14-17.45,5.21-34.5,4.29-52-.15-2.95.8-6-.87-8.78-.29-14.72-4.94-28.49-9.28-42.32-1.18-3.78-2.61-7.48-4-11.19C153,415.38,152.16,413.87,153.83,412.46Z"/><path class="cls-83" d="M166.85,470.46c1.88.83,1.93,2.47,2,4.2.17,14.93,0,29.82-3.7,44.44a14.68,14.68,0,0,0-.25,5.45c1.35,9.55-3.27,16.39-9.5,22.88-4.37,4.55-9.58,9-8.53,16.51.62,4.45,3.39,7.9,5.38,11.65,5.2,9.79,12.06,18.67,17.39,28.34,5.08,9.21,13,16.86,15.41,27.55.24,1.09,1.26,2.21.1,3.2s-2.22.08-3.21-.45c-8.91-4.74-18-9.16-26.21-15.15-2.81-2.05-4-1.54-5.59,1.38-3,5.47-6.51,10.69-9.9,16-1.43,2.23-1,3.76.87,5.6,5.12,5.05,11.92,7,18.12,10,17,8.14,35.59,11.06,53.67,15.54,10.53,2.61,21.41,3.79,32.14,5.58a11.59,11.59,0,0,0,2.5,0c1.58-.09,3.44.54,4.37-1.48.76-1.68-.46-2.77-1.17-4-3.78-6.89-9.73-11.66-15.79-16.33-1.14-.88-2.63-1.39-2.85-3.72,13.68,8.87,28.9,7.2,43.74,7.87,1.55,4.52-1.73,7.75-3.21,11.41-1,2.5-2,4.76-.75,7.39-1.14,1.22-2.6,1.11-4.07,1-1.86,1.44-2.35,3.67-3.2,5.68-1.29,1.54-3,1.16-4.63,1-20.6-2.31-41.3-3.54-62-4.91-10.23-.68-20.52-.6-30.74-1.7-7.12-1.26-14.36-1.57-21.53-2.36A85.31,85.31,0,0,1,128,669.07c-8.1-2.14-16.58-3-24.2-6.83-9.7-5.78-12.64-14.39-7.48-24.28,2-3.8,1.34-8.08,3.51-11.63.54-2.48-1-4.67-1-7.08-1-2.81-.59-5.81-1.62-8.7s.88-5.45,2.64-7.73a168,168,0,0,0,18.54-28.91,94.5,94.5,0,0,1,4.71-8.83,33.81,33.81,0,0,0,4.09-7.37c3.9-10.8,11.61-19.26,17.76-28.66,5.71-8.74,12.25-17,16.89-26.36,3.25-6.55,3.63-14,3.93-21.3C167.17,477.85,166.73,474.13,166.85,470.46Z"/><path class="cls-12" d="M12,605.22c2.51-2,5.43-.87,8.13-.9,4.56-.06,8.6-1.78,12.87-2.9,8.4-2.2,16.41-6.07,25.33-6.25,1.6,0,4.49.56,3.58-2.94,9.18,4.5,16.45,11.41,23.14,18.9,4.58,5.13,8.61,10.76,12.89,16.17C99,629.85,97.09,631,95.5,632c-4.61,2.9-6.14,6.8-5.52,12.25.77,6.79,1.62,13.45,4.35,19.81,2.35,5.49,3.51,11.39,5.37,17.06a27,27,0,0,1,.43,8.65c-.4.23-.45,2.77-1.2.39-1.87-6-3.34-12.11-5.06-18.15-.41-1.46-.18-4-3.21-2.1-1.29.78-2.22-.89-2.9-2.08-1-1.7-2.06-3.34-3.29-5.31,2.23-.43,4.18-.83,6.61,1.66-1.5-6.07-3.76-10.74-3.4-16,.17-2.33-1.43-1.59-2.58-.58s-1.15,2.3-1.24,3.65c-.07,1.17-.27,2.57-1.9,2.26-1.47-.28-3-.91-2.68-2.93a12,12,0,0,0,.5-2.89c-.21-1.85-1.91-4,.89-5.13,2.12-.84,4.3-.57,5.64,2.26,1.25-9.19,1.18-9.11-6.64-13.22-10.12-5.33-20-11.13-30.23-16.17-6.19-3-12.56-5.93-19.47-7.17-1.71-1.55-4.28-.47-6-2C19.91,606.81,16,605.46,12,605.22Z"/><path class="cls-82" d="M165.79,481.39c1.42,2.29,1.16,4.84.92,7.29-1,10.66-5.8,19.69-11.93,28.29-8,11.27-15.54,22.9-23.36,34.32-1.51,2.21-1.33,5.22-3.57,7-4.12,3.57-6.95,2.65-8.07-2.61a12.69,12.69,0,0,1,.06-4.39c.19-1,.07-2.19.62-2.85,7.23-8.54,8.23-19.23,10.4-29.54,3.45-16.4,3.84-33,4-49.69,0-1.26,0-2.51,0-4.9,2.83,3.85,2.81,7.46,3.93,10.63,3.27,9.35,4.9,19.11,7.22,28.7.89,3.68,2,4.4,4.63.66C155.87,496.79,163,490.54,165.79,481.39Z"/><path class="cls-84" d="M119.84,574.27a194.58,194.58,0,0,1-20.26,31c-1.86,2.33-1.54,5.16-.81,8,.48,1.87.08,4,.08,6C94.62,602.4,86.59,586.94,81,570.6c-2.54-7.47-4.22-15.27-6.82-22.77a6.11,6.11,0,0,1,.27-4.47c9.61,9.83,18.2,19.78,25.4,30.91a8.08,8.08,0,0,0,3.44,3.43c3.56,2.1,6,1.11,7-2.88.29-1.11.24-2.29.46-3.43.27-1.36.81-2.53,2.34-2.85a3.07,3.07,0,0,1,3.44,1.37C117.58,571.44,118.94,572.69,119.84,574.27Z"/><path class="cls-82" d="M119.84,574.27c-1.52-1-4-.77-4.15-3.53-.07-1.21-1.22-1.46-2.27-1.29-1.21.2-1.48,1.15-1.52,2.21a14.39,14.39,0,0,0,0,2c.37,3.74-2.13,7-4.79,7-2.9-.07-7.45-1.24-7.2-6.31,2.83,1.26,4.28-.7,5.72-2.53,1.72-2.18,3-4.72,5.25-6.47,2,.24,2.41-1.31,3-2.68.9-2,2.44-3.24,4.71-2.77,2,.41,3.33,1.58,2.54,3.93-.12.34-.3.59-.27.82a3.7,3.7,0,0,1,1.19-.63c1-.12,2.06-.23,1.81,1.36Z"/><path class="cls-84" d="M123.86,565.3c-3.21-2.3-3,2.7-5.27,2.45-.77-.86,0-1.42.38-2.12.75-1.56,3.21-3.36,0-4.67-2.23-.9-3.54.23-4.18,2.67-.45,1.71-.92,5.13-3.89,1.64a82,82,0,0,1,9-14c.92.63.92,1.59,1,2.57.65,5.8,1.78,6.5,7,4.43C127.13,561,126.36,563.63,123.86,565.3Z"/><path class="cls-85" d="M119.93,786c-15.23,2.61-29.54,8.43-44.32,12.64-1.89.54-3.82,1-5.73,1.43A7.54,7.54,0,0,1,67.13,796C62.48,782.49,57,769.29,52.26,755.82c-.44-1.24-1.06-2.48-.38-3.84.37-.94,1.32-.72,2-1,10.07-3.35,20.19-6.51,30.45-9.24,8.83-2.35,17.6-3.15,26.58-1.14a33.84,33.84,0,0,0,5,.4c3.25,3.56,4,8.3,5.71,12.53,3.53,8.57,6.66,17.3,10.14,25.89,1.25,3.07.37,4.34-2.73,4.4A19.12,19.12,0,0,0,119.93,786Z"/><path class="cls-7" d="M24,606.25c2.16.15,4.69-.77,6,2C27.8,608.07,25.28,609,24,606.25Z"/><path class="cls-1" d="M174.8,337.58c2.26,2.93,1.57,6.47,1.89,9.76.21,2.11-1.54,2.12-3.1,2.23a27.91,27.91,0,0,0-18.42,8c-2,2-6.12,1.9-5.94,6.29,0,1-2.23,2.07-3.3,1.52-2.86-1.49-5.81-1.76-8.88-2.32s.95-3.05.09-5.46l-18.29,13.93c-7.53-1.88-15.15-1.23-22.69-.46-3.12.32-6.15.18-10.35.7,7.93-7.22,16.49-11.23,24.79-15.45,15.82-8,31.52-16.24,46.25-26.18a14.19,14.19,0,0,0,3.17-2.35c1.8-2.2,3-1.55,4.74.21C168,331.32,171.44,334.4,174.8,337.58Z"/><path class="cls-86" d="M253.59,361.6c-11.87-6.26-24.3-11.42-35.76-18.51-13.71-8.48-26.7-17.94-39.54-27.65l-2.68-2.69c1.67-3.95,3.59-7.81,4.94-11.86,1.54-4.6,3.57-4.12,6.28-1.18,3,.53,4.87,2.71,7,4.47,12.3,10.06,25,19.63,38.63,27.8,1.12.67,2.33,1.29,2.86,2.63,4,3.63,9.28,5,13.6,8.05,1.33.94,3,1.38,4,2.89-2.43,1-4.08,2-2.72,5.4,1.22,3.07.3,7,4.51,8.63C255.49,359.9,255.59,361.76,253.59,361.6Z"/><path class="cls-87" d="M51.88,752q7.48,19.6,15,39.22c1.11,2.91,2,5.9,3,8.86l-1,.94-27,9c-.52-7.21-4-13.55-6.07-20.31a245.86,245.86,0,0,0-9.8-27.47L29,760.75C36.21,756.82,44.06,754.44,51.88,752Z"/><path class="cls-88" d="M313.55,330.58c-9.71-6.86-19.39-13.77-29.16-20.54-10.85-7.53-21.8-14.93-32.71-22.38-1.26-5-.06-10,.21-14.88.34-6.3-1-12.67-.1-18.73,1.21-7.73.46-15.82,4.36-23.23s7.19-15,17.56-14.18a2.51,2.51,0,0,0,2.09-1.19c.69-1.46.55-3.48,2.65-4,1.34,4.68,4.43,8.25,7.37,11.94,5.75,7.22,12.91,13.31,17.08,21.77a20.17,20.17,0,0,1,1.94,9.89,255.53,255.53,0,0,0,1.34,36.66c1.22,10.39,4.51,20.31,5.43,30.66.24,2.7,2.43,3.82,3.86,5.57.63.78,1.5,1.64.83,2.6S314.48,330.35,313.55,330.58Z"/><path class="cls-89" d="M278.45,211.45c-.78,1.31-.47,3.16-2,4.09-1.37,1.67-3.36,2.13-5.29,2.54-6.2,1.31-7.65.28-9.28-5.76a117.89,117.89,0,0,0-5.6-16c-2.48-5.74-7.89-8.31-12.66-11.56-1.51-1-3.38-1.41-4.73-2.71-2.07-2.68-4.69-1.72-7.27-1.1-.22,0-.45,0-.68,0,.35-1.37-4.76,2.66-1.78-2,1.7-2.66,4.21-4.86,5.25-8.25.4-1.29,4.88-1.92,7.47-1.84,8.87.27,17.87-1.89,26.55.1a151.9,151.9,0,0,0,19.83,2.9c4.84.45,9.26-1.27,13.23-2.74,4.82-1.79,4.54-1,3.32,2.82-.14.46.45,1.14.7,1.72.49,8-4.41,12.07-11,14.88-1.5.63-2.8,1.75-4.26,2.51C282,195.4,277.39,201.79,278.45,211.45Z"/><path class="cls-90" d="M369.62,207.44c4.77,3.61-.81,4.43-1.75,6.5-2.36,1.43-4.81,2.45-7.66,1.67-4.26-2.61-8.7-5-12.11-8.79-8.75-6.6-18.29-11.16-30.92-10.89,3.21-1.86,5.12-3.07,7.12-4.11,8.59-4.44,16.59-6.14,25.05,1.39A101.86,101.86,0,0,0,369.62,207.44Z"/><path class="cls-91" d="M348.1,206.82c4.24,2.07,8.4,4.24,11.52,7.93.24,1.56-1,2-2,2.39a13.64,13.64,0,0,0-7.07,5.82,5.53,5.53,0,0,1-6.82,2.6c-5.9-6.71-14.15-11.23-19.06-20.08a132.66,132.66,0,0,0,17.71,3.39C344.93,209.25,346.63,208.74,348.1,206.82Z"/><path class="cls-92" d="M343.71,225.56c3.23-.89,6-2.14,7.39-5.68s5.94-2.94,8.52-5.13l8.25-.81-1.5,2.77c-4.67,5.22-10.61,8.26-17.2,10.28C347,227.66,345,228.27,343.71,225.56Z"/><path class="cls-93" d="M276.46,655.13c3.23-12.41.15-24.45-3.14-36.17-1.85-6.58-1.09-12.76-.32-19,.71-5.77,1.24-11.56,1.89-17.33a200.54,200.54,0,0,0,1.76-25.81c1-48.48-5.39-96.12-16.25-143.23-1.75-7.59-4.44-14.95-6.52-22.47-.4-1.46-1.95-4.4,2.12-3.47,6,.55,7,1.37,8.34,6.69.6,2.38,1.58,4.65,2,6.79-.13-3.73-3.65-7.25-1.6-11.57l5.19-.19,2.82,7.05c10.52,30.61,15.65,62.36,19.82,94.3,1.73,13.17,3.3,26.37,3.49,39.69a389.24,389.24,0,0,1-3.77,61.12,137.75,137.75,0,0,0-1.51,19.35,12.47,12.47,0,0,0,1.51,5.71c6.06,12.14,9.38,24.81,7.34,38.5l-.62.65c-6.75,2-8,1.23-7.79-5.33.23-6.74-1.05-13.34-1.47-17a97.57,97.57,0,0,1,1.42,18.19c-.19,5.35-.48,6-6,5.89C282.21,657.47,278.43,659.23,276.46,655.13Z"/><path class="cls-52" d="M320.62,667.17c-7.3-.45-14.24,2.72-21.58,2-1.8-.17-3.64.07-5.25-1,.31-5,2.59-9.24,5.72-13h.12c8.72-1.73,18.2-.17,26-5.91,3.49,3.35,3.91,6.87.74,10.7C324.41,662.28,322.53,664.74,320.62,667.17Z"/><path class="cls-94" d="M245.91,124c1.65,1.61,4.74,0,5.93,2.63-1.47,1.93-3.7,2.14-5.81,2.39-11.2,1.33-22.35,3-33.51,4.59-3,.42-5.91-1.23-8.81.12l-3.93.11c-3.08-.11-6.53,1.42-8.91-1.94l14.88-2.28Z"/><path class="cls-95" d="M190.87,131.93c2.81,1.42,6,1.16,8.91,1.94-6.24,1-12.45,2.24-18.73,2.83-4.1.38-8.05,1.26-12.05,2-.53-3,1.33-4.31,3.81-4.65C178.82,133.24,184.85,132.63,190.87,131.93Z"/><path class="cls-96" d="M167,674.06c32.59,1.45,65.17,3.11,97.6,6.86,7.67,2.8,6.19,9.28,6.1,15.19-.62,2.29-2.33,3.56-4.26,4.63a32.2,32.2,0,0,1-10.22,3.91c-13.17,2.21-26,6-36.59,7.41a265.07,265.07,0,0,1,42.48-5.46c3.38-.14,6.2-2.28,9.55-2.38,0,.63.09,1.26.13,1.89.68,1.57.77,3.2-1.29,3.44-7.2.83-12.8,5.44-19.25,8A160.35,160.35,0,0,1,208.73,728c-7.64.83-15.21-1.47-22.62-3.19-7.13-1.66-14.36-2.79-21.45-4.62-.8-.21-1.63-.34-2.42-.59-2.21-.69-5.26-1.14-5.24-3.81,0-2.87,3.23-2.88,5.42-3.31q27.87-5.4,56-9.64c10.52-1.58,21.14-2.45,31.58-4.54-10.16,1.92-20.55,2.28-30.68,4.43a6.9,6.9,0,0,1-3.44-.07c-10.87-3.12-22.18-4.3-33-7.78A43.31,43.31,0,0,1,165.26,684c-1.75-1.74-3.91-3.51-2.61-6.41,1.49-3.3,4.29-1.38,6.19-1.5-.81-.18-2.05-.33-3.26-.57-.64-.12-1.14-.72-.44-1.42S166.35,673.77,167,674.06Z"/><path class="cls-97" d="M167,674.06a1.3,1.3,0,0,0-.47.16,5.15,5.15,0,0,0-.53.61c2.53,1,5.54-.66,8.86,2-3,.44-5,.57-7.17-.18-1.45-.5-2.83-.77-3.93.89-1.33,2,.11,3,1.19,4.24,8.45,9.72,20,13,32,15.38,5.51,1.1,11,2,16.43,3.69,7.22,2.28,14.37-.43,21.53-1,6.22-.47,12.37-1.74,18.65-2.1-32.09,5.19-64.05,11-96.56,17.19,2.5,3.62,5.89,3.42,8.72,4,10.13,2.26,20.34,4.16,30.49,6.37a50.33,50.33,0,0,0,22.48,0c11.75-2.77,23.57-5.15,34.73-10.1,5.76-2.55,10.68-7.53,17.73-6.94a10.09,10.09,0,0,0,.67-2.17c1.8,2.92.67,6.14.87,9.22.08,1.23-.52,2-2.06,2.2-11.15,1.5-21.65,5.85-32.75,7.57-3.4.52-5.29,3.73-8.87,4.11-7.06.76-14.07,1.91-21.2,1.91-6.29,0-12.57.54-18.84.77-10.74.38-21.37-1.67-31.81-4.23-5.77-1.42-11.74-2.17-17.11-5-6.09-3.2-5.77-5-2-10.53,5.12-7.47,11.88-8.5,19.85-8.09,6.07.31,12.17.06,18.95.06-1.58-2.61-3.42-2.12-4.8-1.94-11.17,1.5-21.18-1.88-30.89-6.9-2.89-1.49-5.56-3.08-6.76-6.25-1.11-2.91-2.68-5.89.59-8.6.8-.66.11-1.45-.42-2.13-1.39-1.77-2.5-3.15-1.82-6.08.48-2.07-3.47-1.73-5.56-2.17-.1,0-.17-.18-.25-.28l1.11-.7Z"/><path class="cls-98" d="M267.76,675.24c1-1.27,2.44-1,3.76-1.22,5.24-3.33,11.17-2.15,16.85-2.53,1.12-.07,2.28.32,3.42-.11,4.26.43,8.49-2.56,12.78-.12a2.85,2.85,0,0,1,1.7,2.85c2.91,6.36,5.81,12.72,5.31,20-1.16,2.92-1.38,6.14-2.83,9-1.84,3.62-3.28,3.86-6.39,1.38-3.43-2.75-6.79-5.46-6.39-9.71-.27-1.42-.89-.55-.29-.86.09,0,.18.1.22.44.49,3.61,1.51,7.13,1.87,10.76.32,3.2.38,6.39-3.08,8.23-3.18,1.69-5.7.26-8.19-1.64-1.31-1-2.48-2.19-3.94-3.12-1.59,1.46.52,4.83-2.76,5.36a110.71,110.71,0,0,0-4.15-27.15C274.3,682.14,272,678,267.76,675.24Z"/><path class="cls-99" d="M310.39,735.18l.12,2c-2.08,3.8.22,7.37.75,11,1.4,9.56-1,18.82-1.47,28.3-2.88-9.82-5.18-19.69-10.67-29-3.36,15.27-1.06,30-1.16,45.65-7.68-14.53-12-29.69-19-44.79-.14,3.19-.25,5.49-.35,7.8-1.74-3.29-.67-6.8-.77-10.21-.05-2,1.54-2.45,3.36-2.85,8.65-1.89,17.26-3.95,25.86-6A15.33,15.33,0,0,0,310.39,735.18Z"/><path class="cls-100" d="M279.8,713.9c2.07-2.36,0-5.45,1.46-8.19,2.63,2.11,5.21,4.08,7.67,6.19,1.62,1.4,3.2,1.35,5,.55a3.85,3.85,0,0,0,2.64-4.26c-.57-5.69-1.17-11.38-1.45-17.24,1.2,5.28,3.93,9.11,8.11,12.74,3,2.6,3.35,1.32,4.21-.69,1.28-3,1.79-6.36,4.1-8.9-.3,6.42,1,12.9-.87,19.26a10.53,10.53,0,0,1-5.77,7.07c-2.94,1.34-4.94,3.84-7.38,5.8-4.94,3.95-11,4.3-16.83,5.06-2.82.37-2.29-2.64-1.91-4.06C280,722.81,279.4,718.33,279.8,713.9Z"/><path class="cls-101" d="M265.71,735.11c-5.58-2.12-11.19-.05-16.67.35a158.4,158.4,0,0,1-22.32.17c-3.7-.24-7.56,1.47-11.13-1.09.59-2,2.3-1.36,3.61-1.42,10.9-.51,21.8-1.14,32.4-4,4.78-1.31,9.52-2.78,14.27-4.17,1.8-.53,4.5-2,4.57,1.12.05,2.67,2.77,6.88-2.57,8.09a12,12,0,0,0-2.18,1Z"/><path class="cls-102" d="M306.27,674.11a3.3,3.3,0,0,1-1.7-2.85c4-2.33,8.54-1.94,12.84-2.66,2.63-.44,4.08,2.34,3.69,4.28-1.13,5.73.47,11.64-1.47,17.25-3.13,2.26-2.83,5.63-3,8.92-.12,2.44.87,5.16-1.94,8.47a68.39,68.39,0,0,0-4-26.64C309.76,678.31,309.28,675.36,306.27,674.11Z"/><path class="cls-97" d="M271.62,704.22c-2.67,3.32-6.57,3.62-10.31,3.85a428.6,428.6,0,0,0-47.43,5.73c3.62-3.08,7.5-2.77,10.9-3.6,11-2.71,22.1-5.35,33.29-7.42a26.34,26.34,0,0,0,12.59-6.67C272.23,698.67,271.63,701.48,271.62,704.22Z"/><path class="cls-103" d="M238.45,181c2.65,1.31,5.3,2.62,8,3.91,11.76,5.72,14.15,17.34,16.85,28.23,1.34,5.45,4,5,7.64,4.37a37.28,37.28,0,0,0,5.55-1.93c-2.05,4.45-6.41,3.51-9.75,3.41-3-.1-4.17,1.18-4.58,3.28a16.6,16.6,0,0,1-3.11,6.67c-3.54,4.78-3.48,10.32-4.61,15.82-2.58,12.53-.19,25.23-2.57,37.66a31.83,31.83,0,0,0-.14,5.27c-2.14-5.39-.81-10.94-.49-16.39a47.14,47.14,0,0,0,.3-7.79c-1.49-2.62-1.06-5.5-1.1-8.31,0-2-.54-3-2.94-2.72-7.62,1-11.74-4-15.7-9.29-7.72-6.66-8.29-16.48-10.95-25.3-3.76-12.47,2-23.18,7.1-33.94l3-2.93-.16-.11A7.67,7.67,0,0,1,238.45,181Z"/><path class="cls-104" d="M319.74,165.68c-4.72,2.38-9.53.46-14.3.29l-42.62-1.35c3.94-1.68,8.08-.38,12.1-.83,1.91-.22,4,.62,5.69-.84,2.27-2.38,5.28-1.84,8-1.65,9.09.62,18.22.77,27.26,2C317.41,163.56,319.29,163.49,319.74,165.68Z"/><path class="cls-105" d="M508.45,600.32c.75,1.2-2,3.25.95,3.93-2.82,1.54-6,1.31-9,1.94,0-1.45,1.07-2.35,1.77-3.44.86-1.34.9-2.69-.87-3-5-.89-5.71-5.32-7.41-8.8-1.8-3.65-3.45-7.44-3.43-11.67l13.1-5.87c.55,1.89,6-1.63,3.7,3.4.43.15,1,.56,1.27.4,4.16-2.7,6.08,2.51,9.44,2.67.85,0,1.27.92,1.1,1.89-1.38,7.48-4.74,13.49-12.19,16.49-.58.23-1.13.54-2,1C505.94,600.71,507.35,600,508.45,600.32Z"/><path class="cls-106" d="M434.46,652.19a28.6,28.6,0,0,1,0,4.9c-1.17,6.61,3.31,9.46,7.92,12.29-6.31.4-11.94,3.33-18,4.81-7.92,1.95-8,1.88-7.89-6.18,0-.66.08-1.31.11-2,.17-7.41,5.6-5.89,10.06-5.83a56.32,56.32,0,0,1,6,.73C432.66,657.84,431.63,654.56,434.46,652.19Z"/><path class="cls-107" d="M235.35,334.61c-10.51-5-19.73-12-28.95-19-6.7-5.07-13.06-10.58-19.57-15.9.19-2.88-2.62-3.5-4-5.24-1.4-2.17.59-3.48,1.5-4.77,9-12.72,20.77-22.77,31.64-33.71,1.77-1.78,3.75-1.72,5.74,0A41.91,41.91,0,0,0,233,263.34c4.26,1.81,4,6.1,4.4,9.38,2.32,20.55,5.25,41.08,4.31,61.86C239.57,337.6,237.45,333.88,235.35,334.61Z"/><path class="cls-108" d="M231.75,243.16c1.49,1.32,3,2.65,4.49,3.94,4.4,3.76,9,6.55,15.25,2.13v14.25c-5.75-5.23-11.52-10.44-17.23-15.72C233,246.55,231.45,245.31,231.75,243.16Z"/><path class="cls-84" d="M385.66,621.48a1.1,1.1,0,0,1-.15.71c-2.16,2.78-2.27,6.17-2.84,9.42-1.37,6.17-3.41,12.21-3.19,18.65,1.31,1.59.77,3.45.73,5.22-.17,6.75,0,13.5-.11,20.25,0,2.25.31,4.67-1.68,6.45-3.42,5.45-8.07,1.61-12,1.25-7.7-.71-14.95-4.25-22.83-4.28-3.31-1.06-7.06-.67-10-3-.42-.5-.74-1.22-1.27-1.47-6.14-2.86-7.91-8.88-3.48-14.07,4.87-5.69,6.61-12.38,7.76-19.42,12.93,0,24.54-4.26,34.92-11.65,3.68-2.62,7.72-5,10.39-9C383.17,618.67,385.07,618.57,385.66,621.48Z"/><path class="cls-84" d="M325.61,606.24c2.69,3.73,5.92,3.9,9.79,1.81,3.3-1.78,6.79-3.21,10.2-4.79a4.36,4.36,0,0,1-2.39,4.56,97.25,97.25,0,0,0-18.66,13c-1.36,1.17-2.72,1.93-2.88-.79C321.38,615,322.3,610.25,325.61,606.24Z"/><path class="cls-52" d="M333.61,676.15c3.3,1.11,6.92,1.14,10,3-6.57.09-12.69-2.57-19.17-3.1-2.41-.2-1.63-2.38-1.79-3.89C326.62,672.59,329.13,677.08,333.61,676.15Z"/><path class="cls-84" d="M353.56,601.23c1.65-2.53,3.69-2.64,6-1C357.81,602.05,355.57,600.94,353.56,601.23Z"/><path class="cls-23" d="M199.79,78.86l1-1c1.66,2.5,3.94,4.69,4,8C199.85,85.84,201.28,81.32,199.79,78.86Z"/><path class="cls-109" d="M514.29,420.48q0,8,0,15.95c-2.25,2-5.19,2.57-7.82,3.79-2.39,1.11-2.87-1.19-3.62-3-1.26,3.58.67,7.21-1.36,10.33-1.24-4.8-.26-9.69-.58-14.53a115.56,115.56,0,0,1,.47-11.91c.31-5,1-5.54,6.05-5A9,9,0,0,1,514.29,420.48Z"/><path class="cls-110" d="M501.44,432.44l.06,15.09c.4,19.93-1.65,39.73-2.94,59.58-.83,12.8.44,13.81,12,18.16-4.91,2.18-13.95-3.2-14.15-8.51-.15-3.82-.1-7.64-.13-11.47q.61-6.36,1.24-12.73c2.08-10.94,1.9-22,2-33.09,1.67-9,.38-18,.83-27C500.74,432,501.08,432,501.44,432.44Z"/><path class="cls-111" d="M294.66,72.93c1.33,1.69,3.44,1.23,5.06,1.4,14.34,1.42,24.5,10.61,35.4,18.51,1.89,1.37,1.52,3.32,2.21,5a21.51,21.51,0,0,1-13,10,280.49,280.49,0,0,1-30.73,7.81c-5.38-2.27-10.27,1-15.38,1.54-6.86.79-13.64,2.37-20.47,3.51a7.43,7.43,0,0,1-7.78-2.91,30.35,30.35,0,0,0-9.36-7.92c-4.49-2.43-5.27-8.74-11.39-11.27,13-3.84,24.82.25,37.21.07-2.36-3-5.47-3.73-8-4.75-7.55-3-13.37-9.18-21.27-11.51-1.23-.37-2.55-1.54-2.06-3,.58-1.75.13-4.12,2.6-5,10.17-3.61,20.26-7.06,31.44-5C277.58,71.07,286.15,71.82,294.66,72.93Z"/><path class="cls-112" d="M378.42,682.18c.08-8.7.12-17.4.28-26.1a48.36,48.36,0,0,1,.78-5.82l35.95-4.15c-.06,13.65-.12,27.3,1.15,40.92a1.35,1.35,0,0,1-.12.47,5.29,5.29,0,0,1-.58.58,6.11,6.11,0,0,1-.35-1.75c.32-3.66-.89-4.3-4.65-3.65A151.74,151.74,0,0,1,388.29,685c-4.7.11-8.4.16-8.6,6Q379.06,686.6,378.42,682.18Z"/><path class="cls-113" d="M291.79,671.38c-6.6,2.12-13.52,1.74-20.27,2.64-2.84-1-2.24-2.91-1.31-4.9,2.09-4.47,4.62-8.76,5.58-13.69a2.37,2.37,0,0,1,.67-.3c4.08,2.14,8.4.71,12.6.72,2.23,0,1.53-2.15,1.59-3.51a91.1,91.1,0,0,0-1.72-19.7,8.9,8.9,0,0,1,0-3.41,60.34,60.34,0,0,1,2.76,18.48c0,7.85.07,7.85,7.78,7.41a75,75,0,0,1-5.72,13c-.8,1.93-2.83,1.8-4.75,2.65Z"/><path class="cls-27" d="M382.67,631.61c-.2-3.48-.37-7,2.84-9.42Q384.09,626.9,382.67,631.61Z"/><path class="cls-114" d="M501.44,432.44l-1,0q0-11,.05-22a5.85,5.85,0,0,0,.92-.14c.07.64.14,1.28.38,3.41,1.37-8.48,2.5-15.51,3.78-23.5,4.23,5.7,6.58,2.7,8.83-.77q0,15.48-.07,31c-3.08-1.29-5.65-3.78-9.5-3.2-1.53.23-2.46.06-2.38,1.93C502.59,423.66,500.78,428,501.44,432.44Z"/><path class="cls-115" d="M264.74,389.58c-.51,4.9,2.43,9.14,2.87,14.17-2.15-1.12-2.3-3.16-2.5-4.66-.76-5.75-3.54-9.63-9.11-11.42-3.07-1-3.56-3.23-3.55-6.2,0-6.65.46-13.27,1.14-19.87,1.12-.89.95-1.5-.33-2.06-1.49-.64-2.93-1.42-4.38-2.13,2.73-3.89-2.09-7.58-.32-11.4,1.11-2.4,2.91,0,4.33-.46l1.9,1.12c2.16,1.21,4.15,2.78,6.72,3.08l8.28,4.83c1.44,1.42.75,3.19.81,4.83-1.94,8.06-3.32,16.26-5.93,24.16a8,8,0,0,0-.05,5.82Z"/><path class="cls-116" d="M269.62,359.49c.05-1.64.11-3.27.17-4.91,2.24-2.21,2.06-5.56,3.78-8,.61-.87.73-2.33,2.46-1.1,3.17,2.27,4.93,7.74,3.64,12-2.58.63-5.16,1.53-7.79.21-1,.43-.56,1.37-.79,2.07a1,1,0,0,1-1,.78C269.47,360.49,269.46,360,269.62,359.49Z"/><path class="cls-86" d="M261.51,349.75c-3.09.83-4.94-1.05-6.72-3.08C257.36,347,259.36,348.54,261.51,349.75Z"/><path class="cls-117" d="M203.71,133.76c7.72-2.39,15.82-2.38,23.7-3.79,8.08-1.44,16.28-2.23,24.42-3.31l.87.15c5.31,3.48,8.37,9,11.67,14,5,7.53,11,11,19.94,9.67a29.5,29.5,0,0,1,8.44.13c1.37.2,3.6.07,2.44,2.73a33.14,33.14,0,0,1-19.64-.48,344.88,344.88,0,0,0-53.46,2.7c-4.75.57-9.54.82-14.32,1.22-5.64-2-4.47-7.57-5.9-11.71-.51-1.47.07-3.28-.11-4.91-.4-3.72.38-6.27,5.14-5.34C206,133.26,204.67,134.14,203.71,133.76Z"/><path class="cls-118" d="M295.74,152.71c-6-1.87-12.1-.92-18.11-.71a11,11,0,0,1-10.05-4.91c-5-6.73-9.92-13.52-14.88-20.28,14-2.33,28-4.7,41.95-7a196.55,196.55,0,0,0,37.72-10.13c3.59-1.35,5.83-4.78,8.16-7.79,11-14.13,20.28-29.37,28.93-45,4.51,9.94,6.78,20.61,10,31,1.13,3.6,2.89,7.06,3,10.95,0,5.91-2.47,11.18-4.52,16.55-4.65,12.24-9.15,24.55-14.28,36.61-1.16,2.74-2.29,5.57-5.41,6.79a11.11,11.11,0,0,1-5.16-.05,344.32,344.32,0,0,0-34.51-3.45c-6.27-.38-12.5-1.45-18.82-1.07A4.55,4.55,0,0,1,295.74,152.71Z"/><path class="cls-119" d="M358.37,158c5.53-6.25,7.21-14.33,10.15-21.77,4.88-12.38,9.33-24.93,14-37.4a3.1,3.1,0,0,0,1.88,3c.81,18.69-1.43,37.33-1,56-.83,1.43.44,3.44-1.27,4.63-5.67,1.18-10.9-1.34-16.33-2C363.25,160.06,360,161.34,358.37,158Z"/><path class="cls-120" d="M382.39,162c.31-1.4-.16-3,1-4.18.71,1.93-1,4.35,1.23,6a20.34,20.34,0,0,1-.57,12.13c-1.53-3-4.47-3.09-7.23-3.48-19-2.64-37.91-5.48-57-6.73-3.32-1.84-7.14-1.29-10.58-1.47-9.5-.5-19-2-28.55-1.26-.3-.07-.59-.15-.88-.24-2.06-2.2-4.38-4.3-3-7.83l-.07-.09c5.26-2.38,10.83-.79,16.14-.76a487,487,0,0,1,55.54,3.74,34,34,0,0,1,4.4.75c8.09,1,16.15,2.33,24.15,3.94C378.74,162.83,380.72,163.85,382.39,162Z"/><path class="cls-121" d="M276.73,154.88l3,7.83c-12.13,0-24.26-.05-36.39.14a249.37,249.37,0,0,0-33.1,2.67c-4.9.73-3.92-3.41-5.32-5.62,7.87-2.3,16.07-2.24,24.1-2.89C244.88,155.74,260.78,154.53,276.73,154.88Z"/><path class="cls-122" d="M353.61,159.62c-25.54-3.35-51.23-4.35-76.95-4.83l-1.11-1.89c6.73-.49,13.47.83,20.19-.18,18.81.14,37.47,2.2,56.13,4.26a6.1,6.1,0,0,1,1.75.8C353.3,158.39,353.83,159,353.61,159.62Z"/><path class="cls-123" d="M269.62,359.49c1.73.66.8-2.08,2.25-1.77,4.64,2.56,2.52,5.92,1.06,9.17-2.29,5.1-4.67,10.17-6.9,15.3a14.38,14.38,0,0,0-1.41,7.2c-2.56-3.9-.16-7.68.55-11.35C266.37,371.81,267.2,365.45,269.62,359.49Z"/><path class="cls-16" d="M238.45,181l-7.68-.09c2.41-3.43,5.29-1.4,8-.69a.92.92,0,0,1,0,.43A1.32,1.32,0,0,1,238.45,181Z"/><path class="cls-124" d="M343.59,223.07c-3.89-3-6.19-6.8-9.21-10.37C345.26,212.65,345.26,212.65,343.59,223.07Z"/><path class="cls-125" d="M284.66,492.38c1.93,7.17,2,14.6,2.81,21.9,1.52,13.67,1.47,27.44,1.09,41.18-.16,5.94-.73,11.87-1.11,17.81a.49.49,0,0,1-.82,0c-.55-7.65,1-15.21,1-22.84a342.36,342.36,0,0,0-2.82-48.1c-.44-3.27-.12-6.64-.15-10Z"/><path class="cls-126" d="M286.63,573.28h.82c-1.26,11.67-2.6,23.33-3.72,35-.32,3.34.86,6.53,2.28,9.58.8,1.74,2.28,3.35,1.16,6.13C278.52,606.81,285.07,590,286.63,573.28Z"/><path class="cls-125" d="M284.67,492.38c-2.24-4.9-1.87-10.25-2.51-15.39-.77-6.2-2.62-12.26-2.47-18.58l-.05,0a136.2,136.2,0,0,1,5,33.93Z"/><path class="cls-125" d="M276.68,441.44a54.69,54.69,0,0,1,3,17l.05,0c-2.4-5.41-2.57-11.21-3-17Z"/><path class="cls-125" d="M274.67,430.46a23.81,23.81,0,0,1,2,11h0c-2-3.43-2.12-7.19-2-11Z"/><path class="cls-125" d="M274.68,430.45c-1.43-2.42-1.93-5.06-2-8.72a16.26,16.26,0,0,1,2,8.73Z"/><path class="cls-127" d="M222.05,207.79c1-6.62,2.68-13,7.3-18.08,2-2.19,4-3.75,7-.78s6.7,5.41,9.94,8.24c4.68,4.09,5.07,8.44,1.48,13.94-4.14,6.37-4,7.58,1.55,13,3.92,3.87,2.1,8.57,2.14,13.49-4.23-2.15-8.16-3.86-11.79-6.06C231,226.33,230,213,237.77,206.73c4.61-3.71-.4-5.88-1.47-8.28-1.51-3.34-4.66-2.56-7.14-.61A24.28,24.28,0,0,0,222.05,207.79Z"/><path class="cls-128" d="M353.61,159.62l-1.33-1.37,1.34-.47,4.75.21,24,4c.69,3.17-1.06,2.57-3.08,2.2C370.76,162.57,362.18,161.12,353.61,159.62Z"/></g></g></svg>