<svg xmlns="http://www.w3.org/2000/svg" viewBox="0 0 1163.15 329.15"><defs><style>.cls-1{fill:#ff9393;}</style></defs><g id="Layer_2" data-name="Layer 2"><g id="Layer_1-2" data-name="Layer 1"><path class="cls-1" d="M173.39,291.81c-7.19-5.95-13.71-12.12-21-17.22-18.08-12.68-36.9-24.35-54.71-37.39C70.1,217,52.35,190,45.23,156.34,33.12,99.08,62.49,39.82,115.66,14.05,136.87,3.77,159.21-1.36,182.72.31c34.57,2.45,64.41,16.08,89.6,39.85,3.27,3.09,6.45,6.27,9.5,9.57,3.26,3.54,3.21,6.82-.51,9.87q-15.78,13-31.86,25.54c-3.95,3.09-7.45,2.22-11-2.33-13-16.64-30-26.77-50.72-29.81C147.08,47,108,70.84,97.78,113.17c-9.16,38.11,9.2,76,45.12,91.68,30,13.12,58.1,7.54,83.38-12.62,5-4,9.29-9,13.34-14,2.88-3.57,5.74-4.6,9.9-2.9,9.34,3.83,18.72,7.55,28.08,11.32,1.23.5,2.42,1.11,3.66,1.58,8.84,3.38,8.49,3.76,4.76,12.29-7.78,17.77-21.67,29.61-37.29,39.73-15.33,9.93-31.14,19.1-46.62,28.78C191.42,275.68,180.67,282.34,173.39,291.81Z"/><path class="cls-1" d="M339.12,293.63c-.47,16.81-2.09,17.25-19,15.44-12.84-1.38-25.65-4.17-38.49-4.28-34.87-.3-68.88,4.33-99.71,22.44a11.86,11.86,0,0,1-12.68.16C144.66,313.56,117.72,309,90,307.14a291.72,291.72,0,0,0-73.88,4.11,26.19,26.19,0,0,1-7.45,0c-5-.54-7.69-3.48-8-8.51C.4,300,.22,297.18,0,293.87c8.78-1.31,17.25-2.63,25.73-3.82,16.61-2.32,33.22-4.43,50.07-3,32.75,2.75,63.72,12,93.53,25.46,4.85,2.19,8.62,2,13.49-.24,26.3-12,53.46-21.36,82.19-25.73,18.82-2.87,36.95,1.39,55.24,4.49C326.42,292.07,332.65,292.74,339.12,293.63Z"/><path class="cls-1" d="M.91,285.31c4.06-18,7.75-34.5,11.46-51,1.13-5,2.16-10.06,3.58-15A11.39,11.39,0,0,1,19.13,214c6.81-5.8,21.7-4.49,26.49,2.95C57.74,235.77,75,248.08,94.29,258.5c15.29,8.25,29.81,18,44.52,27.27,3.3,2.09,5.95,5.2,8.71,8.58C100,274.92,51.5,272.26.91,285.31Z"/><path class="cls-1" d="M195,298.6c9.45-15.05,24.38-22.48,39.22-30,10.5-5.32,21.48-9.84,31.47-16A83.9,83.9,0,0,0,295,222c5.37-9.54,16-11.6,23.94-8.84,2.75,1,6.26,3.73,6.85,6.27,4.7,20.31,8.78,40.76,13.17,61.79-9.75-.66-19-.36-27.81-2.06-31.52-6-61.65-1-91.21,10C211.64,292.22,203.36,295.41,195,298.6Z"/><path class="cls-1" d="M740.24,71.89c19.2,0,38-1.36,56.54.39,17.59,1.65,27.89,12.18,30.15,27.06,2.49,16.43-1.11,30.76-16.52,40-.92.56-1.78,1.23-3.08,2.12l26,49.7c-9.2,0-16.86.32-24.47-.22-2-.15-4.63-2.54-5.76-4.57-5.21-9.38-10.62-18.73-14.74-28.61-3.42-8.2-8.48-11.3-17-9.81-2.38.42-4.9.06-8.29.06v42.72H740.24Zm23.14,57c9.74-1.08,19.07-1.26,28-3.36,8.14-1.92,11.51-8.56,11.38-17-.12-8.29-3.79-14.38-11.77-15.75-9-1.54-18.28-1.29-27.56-1.83Z"/><path class="cls-1" d="M615.52,70.79h24.19v27.4c0,16.86-.11,33.72.07,50.58.16,15.83,7.67,23.45,22.57,23.41,15.26,0,22.38-7.3,22.44-23.23.08-23.21,0-46.43,0-69.64V70.85h23.36a15.66,15.66,0,0,1,.82,3.62c.07,25.43.43,50.87,0,76.29-.44,26.08-17.59,42-43.85,42.46-17.49.31-33.34-2.85-42.93-19-3.52-5.95-6.22-13.35-6.4-20.16C615.1,126.47,615.52,98.89,615.52,70.79Z"/><path class="cls-1" d="M293.41,70.82h23.47c0,9.92,0,19.51,0,29.09,0,16.31-.28,32.62.16,48.92.44,16.47,9.07,24,25.4,23.31,10.55-.48,17.95-6.52,19.09-17,1.09-10.11,1.27-20.35,1.39-30.53.2-17.66.05-35.33.05-53.57h22.8c0,29.22,1.32,58.49-.46,87.58-1.23,20.14-19.83,34.6-40.26,34.27-9.75-.16-20-.9-29.06-4.17-14.23-5.15-21.85-17.46-22.32-32.14C292.76,128.19,293.41,99.76,293.41,70.82Z"/><path class="cls-1" d="M892.61,71.15a6.76,6.76,0,0,1,1.27-.48c22.71-1.44,22.81-1.48,30.8,19.59q17.69,46.68,35.09,93.48c.76,2,1.29,4.14,2.12,6.86H936.05c-3.16-8.92-6.37-17.95-9.77-27.53-12.62,0-25.31-.23-38,.23-2.06.08-4.95,2.86-5.82,5-2.93,7.36-5.11,15-7.61,22.61h-26Q871,130.51,892.61,71.15ZM906,102.49l-1.91-.1c-4.49,13.38-9,26.76-13.57,40.37h29C914.83,128.8,910.4,115.65,906,102.49Z"/><path class="cls-1" d="M1163.15,70.9V91h-54.22v27.37h47.7v19.83h-47.39v32H1162v20.34h-76.73V70.9Z"/><path class="cls-1" d="M527,91.42H491.25V70.91h97.34V91.1H553.67v99.59H527Z"/><path class="cls-1" d="M996.72,91.4H960.56V70.92h97V91.23h-34.44v99.48h-26.4Z"/><path class="cls-1" d="M418.41,70.66h22.95v99.58H491.6v20.43H418.41Z"/></g></g></svg>